<?xml version="1.0" encoding="UTF-8"?>
<svg id="Layer_1" data-name="Layer 1" xmlns="http://www.w3.org/2000/svg" viewBox="0 0 1030.89 1280">
  <defs>
    <style>
      .cls-1 {
        fill: #fbe3cd;
      }

      .cls-1, .cls-2, .cls-3, .cls-4, .cls-5, .cls-6, .cls-7, .cls-8, .cls-9 {
        stroke-width: 0px;
      }

      .cls-2 {
        fill: #2eb454;
      }

      .cls-3 {
        fill: #8c5a24;
      }

      .cls-4 {
        fill: #5b4019;
      }

      .cls-5 {
        fill: #875221;
      }

      .cls-6 {
        fill: #21894b;
      }

      .cls-7 {
        fill: #2f1d0f;
      }

      .cls-8 {
        fill: #fff;
      }

      .cls-9 {
        fill: #cc8b43;
      }
    </style>
  </defs>
  <g>
    <path class="cls-8" d="M893.29,239.56c-28.07-13.12-57.69-19.78-88.07-19.78-43.82,0-85.82,14.01-120.56,37.94-13.81-36-39.5-62.8-61.72-82.94,7.72-32.55,8.96-67.48,3.36-101.42h-.01c-.21-1.21-.55-3.07-.88-4.78l-.22-1.11-.02-.14-.15-.79c-6.44-33.61-36.45-58-71.36-58-15.07,0-29.81,4.76-41.88,13.47-19.43,12.72-36.3,28.61-49.94,46.49-9.07-12.42-19.52-24.21-31.23-35.12l-.23-.22-.23-.21c-5.86-5.33-12.64-11.24-22.46-18.32l-.57-.41-.58-.39C393.27,4.78,377.87,0,362.01,0c-40.03,0-74.2,30.55-79.35,70.22-10.69,54.37-3.75,109.91,19.07,156.97-.56,1.71-1.08,3.44-1.55,5.18l-.12.44-.11.44c-4.38,17.58-6.31,35.97-5.79,54.47-149.61,88.58-211.35,282.78-137.26,451.38,60.31,138.92,194.44,225.35,349.97,225.35,124.17,0,237.56-55.95,311.11-153.51,23.24-30.81,40.27-68.3,49.29-108.47,4.74-18.64,6.97-36.58,8.95-52.43,3.01-24.2,5.4-43.37,14.79-57.21,11.64-15.65,34.7-25.4,68.53-28.98,34.56-3.8,61.98-30.04,67.36-64.08,20.02-108.79-37.24-220.21-133.61-260.21Z"/>
    <g>
      <path class="cls-2" d="M689.95,609.53c-3.98,22.14-11.27,39.72-15.34,48.51-5.25,11.33-10.76,20.45-15.26,27.21-.68,5.41-2.12,12.51-5.25,20.28-3.47,8.62-7.8,15.3-11.44,19.86-.42.51-.85,1.01-1.19,1.44-4.75.84-12.37,1.61-21.53-.17-9.66-1.86-16.7-5.75-20.85-8.37-13.22.34-31.44-.51-52.46-5.83-12.2-3.04-30.26-8.96-49.75-20.45-42.21-24.93-63.48-59.92-71.11-73.95-6.53-12.17-14.49-29.92-19.24-52.99,7.88-6.85,15.68-13.18,23.31-18.93,7.54-5.75,14.92-11.07,21.95-15.89,8.98-6.25,17.46-11.75,25.34-16.48,2.03-1.27,4.07-2.45,6.02-3.63,18.81-11.07,36.19-19.78,51.27-26.62,20.42-9.21,49.41-20.79,85.34-30.09,11.78-3.04,21.7-5.24,28.73-6.59,11.44,14.96,27.8,40.48,37.04,75.56,11.53,43.86,5.76,79.19,4.41,87.14Z"/>
      <path class="cls-5" d="M648.51,446.83c-18.81,3.55-43.31,9.21-71.28,18.68-47.21,16.14-81.7,35.5-97.89,45.3-2.29,1.35-4.24,2.54-5.76,3.46-18.65,11.66-42.12,28.23-67.04,50.79-3.98-1.1-10.09-3.3-16.53-7.69-2.8-1.94-18.81-13.02-21.19-30.85-1.27-9.13,1.53-16.65,4.24-22.73,19.24-43.78,59.33-73.28,65.51-77.76,8.22-5.92,15.93-10.73,22.37-14.45,8.56-4.99,14.92-8.03,17.2-9.13,42.29-19.86,79.07-21.72,92.72-21.97,7.03-.08,72.29-.68,81.28,23.58,1.1,2.87,1.7,6.93,1.86,8.2,2.2,15.21-2.37,27.81-5.51,34.57Z"/>
      <path class="cls-4" d="M473.58,514.27c-22.35,16.93-44.69,33.86-67.04,50.79-3.98-1.1-10.09-3.3-16.53-7.69-2.8-1.94-18.81-13.02-21.19-30.85-1.27-9.13,1.53-16.65,4.24-22.73,20.18-45.28,65.51-77.75,65.51-77.76,12.2-8.78,30.68-20.45,55.46-30.48-2.32,9.88-5.74,30.61,1.32,55.11,5.7,19.8,15.78,33.49,22.13,40.89-14.63,7.57-29.27,15.15-43.9,22.72Z"/>
      <path class="cls-6" d="M562.23,715.73s-7.85-1.34-15.59-3.27c-12.2-3.04-30.26-8.96-49.75-20.45-42.21-24.93-63.48-59.92-71.11-73.95-6.53-12.17-14.49-29.92-19.24-52.99,15.31-13.09,33.32-27.02,54.16-40.77,20.08-13.25,39.28-24,56.78-32.74,4.85,32.53,13.74,72.91,30.48,117.4,17.4,46.23,38.29,83.63,56.76,111.89-14.17-1.7-28.34-3.4-42.51-5.11Z"/>
      <path class="cls-4" d="M505.68,390.68c-2.01-3.84-5.25-8.87-10.36-13.67-10.16-9.54-21.61-12.4-26.98-13.37-3.44,1.97-8.21,5.21-12.82,10.3-5.12,5.65-7.99,11.31-9.58,15.16,1.82,4.77,3.59,10.72,4.61,17.68.56,3.81.8,7.34.86,10.54,7.85-4.92,16.77-9.98,26.74-14.86,9.74-4.77,19-8.63,27.54-11.78Z"/>
      <path class="cls-9" d="M830.78,532.57c-19.57,29.69-12.92,53.91-35.47,131.06-1.11,3.81-14.77,50.22-26.86,76.12-41.4,88.68-168.75,160.3-281.13,147.58-74-8.38-203.32-92.38-203.32-92.38-71.28-71.75-90.68-169.54-84.5-240.03,1.53-17.49,6.1-64.57,33.99-115.11,5.25-9.38,17.97-31.1,39.49-54.85,20.76-22.73,40.34-37.19,50-43.95,2.97-2.03,5.93-3.97,8.73-5.83,11.53-7.27,22.04-12.85,30.68-17.07-2.54-10.73-5.51-29.92-.51-52.74,3.47-15.47,9.32-27.47,14.24-35.58,18.56-12.68,48.99-30.17,90.01-39.55,29.58-6.85,55.43-7.35,74.41-6.17,9.83,6.51,23.73,16.82,38.39,31.52,18.39,18.42,36.61,36.68,44.92,65.75,3.56,12.51,10.34,36.51-1.36,61.87-1.95,4.06-14.32,29.75-39.66,37.44-13.05,3.97-18.81-.08-42.29,2.54-15,1.69-27.04,4.99-34.83,7.52-8.9-9.72-17.12-16.48-23.14-20.96-6.53-4.82-10.09-6.68-14.24-6.09-4.75.68-7.97,4.4-12.8,10.31-2.8,3.38-6.36,8.37-9.58,15.13.68,4.06,1.36,8.28,2.2,12.51,1.02,5.41,2.12,10.65,3.22,15.72-4.15,2.62-8.48,5.49-12.8,8.7-11.36,8.28-20.85,16.82-28.65,24.93,10.34,3.21,20.76,6.42,31.19,9.55.12.12.31.29.55.53,2.52,2.45,14.64,14.99,11.91,29.9-1.91,10.42-10.09,16.58-12.74,18.42-8.91,2.2-19.7,4.15-32.04,4.92-15.36.96-28.72-.18-39.3-1.85-.7,3.21-1.35,7.88-.85,13.45.3,3.29,1.42,13.77,9.41,23.63,10.68,13.18,25.43,15.13,28.48,15.55,2.12,9.72,5.25,20.96,9.92,33.05,5.25,13.44,11.19,24.85,16.7,34.06,5.75-2.14,14.65-4.78,25.72-5.31,22.5-1.08,52.23,6.62,68.68,28.03,15.47,20.14,11.29,42.14,19.99,43.2,8.32,1.01,11.45-19.2,32.97-31.21,9.49-5.3,25.6-10.69,31.74-4.59,6.41,6.38.07,23.48-5.82,39.37-2.57,6.93-5.24,12.57-7.34,16.63,2.63,1.27,6.86,3.21,12.12,5.07,12.37,4.23,22.12,7.61,30.26,3.47,5.85-2.87,8.39-8.37,11.61-15.3,4.66-9.89,5.34-19.1,5.25-24.34,10.93-16.48,31.02-51.89,34.07-100.91,2.12-34.4-4.92-62.2-10.76-79.28-6.66-13.96-16.84-40.33-14.98-73.77.37-6.55,5.98-83.68,72.41-120.5,9.56-5.3,46.86-24.44,94.15-14.34,49.81,10.64,76.36,46.37,84.78,58.12,35.97,50.2,28.54,104.65,26.7,116.22-70.05,11.41-99.69,38.26-113.91,59.84Z"/>
      <path class="cls-9" d="M447.99,188.17c-8.26-29.73-19.65-52.18-28.58-67.15-17.13-28.71-30.36-38.48-36.9-42.74-9.7-6.32-18.86-9.77-25.37-11.72-3.26,4.57-7.66,11.61-11.04,20.9-7.07,19.41-4.97,35.59-1.99,58.5,4.06,31.19,13.32,52.86,16.58,60.1,4.96,10.99,10.15,19.87,14.37,26.41,4.36-5.81,8.71-11.62,13.07-17.44,8.83-4.92,18.6-9.9,29.31-14.7,10.74-4.82,21-8.82,30.56-12.16Z"/>
      <path class="cls-9" d="M479.14,189.15c5.26-18.1,11.64-32.69,17-43.36,6.12-12.2,14.44-28.51,30.07-46.11,11.9-13.41,23.74-22.74,32.54-28.83,3.65,9.7,6.94,21.23,8.77,34.39,5.9,42.36-6.76,77.05-15.11,95.11-10.11-3.59-22.82-7.17-37.72-9.32-13.5-1.95-25.55-2.26-35.55-1.88Z"/>
      <path class="cls-1" d="M565.05,89.32c-9.03,9.45-20.44,23.36-30.31,42.13-10.66,20.26-15.69,38.87-18.22,52.24,2.63-.95,10.96-3.6,20.92-.52,10.56,3.26,16.04,10.82,17.54,13.06,5.8-13.17,13.02-33.98,14.3-60.32.92-18.86-1.49-34.83-4.23-46.6Z"/>
      <path class="cls-1" d="M376.53,70.72c-.79,13.47-.7,28.87,1.17,45.74,4.12,37.19,15.28,67.21,25.38,88.33,13.65-4.16,27.29-8.33,40.94-12.49-.67-22.19-6.19-39.06-10.38-49.2-8.86-21.46-22.64-36.22-37.32-52.42-7.93-8.75-14.95-15.5-19.79-19.96Z"/>
      <path class="cls-1" d="M552.59,276.17c-2.74,7.49-5.48,14.98-8.22,22.48-8.43-4.86-16.85-9.72-25.28-14.58,3.36-2.16,8.61-4.97,15.53-6.68,7.47-1.84,13.86-1.66,17.97-1.21Z"/>
      <g>
        <path class="cls-8" d="M603.46,602.87c-19.07,2.93-36.1,11.14-50.12,24.38-2.71,2.6-7.08,2.45-9.56-.38-5.18-7.46,4.76-16.34,9.3-21.91,12.95-13.1,33.18-19.59,51.19-14.98,6.83,1.64,6.05,12.13-.81,12.88h0Z"/>
        <path class="cls-8" d="M608.19,565.65c-32.91,1.7-63.48,13.81-86.62,37.17-5.16,5.5-14.29-1.69-10.2-7.94,9.73-15.95,24.98-28.7,42.43-36.34,17.43-7.66,37.34-10.16,55.63-5.73,3.51.85,5.66,4.37,4.81,7.87-.7,2.88-3.22,4.85-6.05,4.98h0Z"/>
        <path class="cls-8" d="M615.05,528.37c-48.79-2.54-97.23,18.49-126.43,57.94-4.66,6.28-14.64-.02-10.94-6.9,19.18-36.46,57.61-61.75,98.52-66.4,9.02-.53,48.67-3.35,45.43,10.48-.77,3.03-3.57,5.01-6.58,4.88h0Z"/>
      </g>
      <path class="cls-3" d="M590.45,875.23c-111.57,29.24-229.24-.95-306.45-80.28-72.77-74.77-90.34-173.38-84.5-240.03,5.59-63.67,33.98-115.11,33.99-115.11,5.25-9.38,17.97-31.1,39.49-54.85,20.76-22.73,40.34-37.19,50-43.95,2.97-2.03,5.93-3.97,8.73-5.83,4.07-.34,8.22-.59,12.46-.84-27.38,33.77-75.02,104.07-74.32,196.68.91,119.97,73.09,198.59,100.25,227.53,82.7,88.13,183.59,110.42,220.35,116.68Z"/>
      <g>
        <path class="cls-7" d="M872.48,286.51c-94.64-45.03-197.53,14.92-220.29,98.34-.11-.07-.2-.15-.31-.23-11.07-7.38-23.32-11.86-36-14.42,21.81-17.8,32.64-49.28,25.53-77.43-7.61-39.3-38.82-67.81-66.8-92.13-3.68-2.78-7.29-6-10.97-9.19,14.36-34.24,17.94-73.06,11.88-109.76-.11-.79-.94-4.85-1.05-5.53-2.81-14.65-21.61-21.33-33.24-12.06-38.57,24.71-67.77,69.21-66.36,115.61-7.7,1.09-15.59,2.44-23.48,4.05-1.03-42.9-24.7-83.82-55.91-112.9-5.77-5.25-10.87-9.56-17.96-14.67-18.16-12.36-42.17.16-43.98,21.95-10.35,50.09-1.98,105.52,26.77,148.04-4.92,5.85-8.52,12.32-10.43,19.45-5.86,23.52-5.67,47.94-.45,71.23-151.87,67.8-211.99,250.12-145.4,401.66,101.04,232.74,422.45,261.08,572.83,61.6,19.82-26.28,33.35-57.9,40.37-89.56,11.68-45.27,5.96-90.18,31.79-127.38,24.14-33.26,65.01-46.11,105.09-50.35,11.12-1.22,20.44-10,22.04-21.55,15.35-81.54-24.36-172.55-103.68-204.77ZM624.26,662.7c-4.13-13.77-21.32-14.31-31.26-10.87-17.64,4.02-30.84,15.3-40.85,29.32-3.87-26.1-20.95-50.87-45.86-61.47-22.44-10.87-49.35-9.02-70.94,2.19-11.89-20.41-18.23-40.09-21.58-54.46,33.43-27.91,69.74-52.32,108.99-71.19,38.45-20.11,80.74-31.08,122.06-42.69,12.38,23.88,22.44,48.3,28.06,73.49,12.23,51.47,4.18,106.41-23.64,151.52-6.36,10.58-3.48,24-9.62,34.94-1.44,3.83-3.05,6.02-6.95,6.56-1.53.13-6.9-.97-8.94-1.08-3.95-.63-7.93-1.63-11.85-2.86,1.05-2.47,2.09-4.94,3.09-7.43,5.2-14.25,13.38-29.51,9.29-45.98ZM604.87,669.25s-.03-.06,0-.13c0,.04,0,.09,0,.13ZM643.59,414.38c3.14,5.16,2.1,15.48-.19,26.56-44.61,5.69-88.19,19.39-128.58,39.11-40.36,19.92-77.9,45.91-109.89,77.52-16.25-6.33-31.5-18.2-29.7-36.83.01-.17,0-.32,0-.49,9.37,1.4,19.07,1.56,28.31.82,13.24-.56,32.66-.35,44.66-12.27,14.15-16.44,12.47-42.23-.85-58.52-4.72-4.23-10.1-7.17-15.8-9.32,15.85-11.35,32.75-21.13,50.3-28.67,22.25-9.43,46.37-15.21,70.53-17.68,30.07-1.85,72.74-4.49,91.23,19.77ZM456.37,402.72c-.64-7.31-3.96-11.43-1.11-14.38,2.41-2.76,6.24-7.48,8.58-10.36,3-3.52,3.93-6,7.77-5.09.55.02,3.43,2.15,4.13,2.53,5.01,2.94,9.96,6.36,14.69,10-11.79,4.91-23.19,10.78-34.03,17.54,0-.08-.01-.16-.02-.24ZM552.56,81.26s0,0,0-.01c-.05-.2-.03-.14,0,.01ZM511.52,127.96c10.71-17.3,24.84-32.42,41.63-44.08,7.47,32.44,6.75,66.05-.91,98.57-6.04-4.04-12.54-6.86-19.97-6.72-11.59-.23-26.92.42-43.81,2.27,6.18-17.95,13.46-34.68,23.06-50.04ZM356.79,113.11c.69-10.75,2.81-23.24,5.32-32.85,4.28,3.07,9.82,7.49,14.29,11.54,29.46,25.6,47.61,58.33,63.04,94.62-24.18,5.85-47.48,14.42-64.47,26.5-13.49-31.76-20.54-65.45-18.17-99.81ZM801.38,592.41c-12.51,60.63-12.67,118.43-53.06,166.38-53.84,66.25-141.48,104.23-226.5,106.01-84.17.47-170.41-34.34-227.21-95.89-76.93-83.88-98.46-215.38-48.12-318.91,22.78-47.78,60.96-88.31,107.01-118.26,5,15.39,12.2,30.05,21.4,43.31,3.75,5.85,13.65,1.59,11.85-5.2-8.2-38.97-15.26-77.38-7.71-115.88,2.2-7.93,7.21-15.12,14.25-19.67,14.37-9.43,29.58-17.73,45.51-24.42,29.23-12.47,61.34-20.12,93.45-20.12,4.65-.1,8.81,1.18,12.34,4.23,49.66,39.3,102.3,123.97,45.03,173.39-13.77-.36-27.49.75-40.28,2.26-14.47,1.82-28.72,5.13-42.55,9.7-4.35-5.47-9.35-10.47-14.8-14.77-2.06-1.43-7.31-5.39-9.38-6.65-7.95-5.77-20.47-4.53-27.41,2.29-5.41,5.77-7.51,9.58-12.01,15.08-3.06,3.66-5.9,9.43-5.76,14.62.81,9.08,4.02,14.81,5.42,22.23-10.12,7.35-19.63,15.49-28.42,24.38-13.79-2.4-27.73-3.05-38.11-7.58-2.84-1.12-6.17-.11-7.87,2.56-8.93,15.94,54.53,25.22,59.95,30.96,7.3,3.16,11.01,28.29.72,32.8-6.22,2.8-16.53,3.93-26.39,4.45-27.57,2.78-59.5,1.32-68.49-29.51-.99-2.99-4.05-4.91-7.27-4.35-3.53.61-5.9,3.95-5.29,7.47,3.59,24.95,20.59,38.31,41.21,44.27-.29.64-.5,1.33-.56,2.07-3.02,24.29,17.95,42.85,38.76,50.34,3.57,15.42,10.4,36.68,23.3,58.72-10.13,7.55-18.34,17.47-23.21,29.33-3.01,6.48,6.42,12.45,10.99,6.82,49.25-53.98,128.05-15.46,120.38,55.85-3.54,8.46,9.04,13.11,12.16,4.51,12.75-24.7,29.48-55.12,60.21-55.06.07,2.18-.41,5.15-1.29,8.48-11.75,34.69-29.42,68.55-48.37,99.95-14.58,5.21-31.83,5.77-47.54,4.87-30.83-2.54-60.71-16.46-83.35-38.64-5.79-5.61-14.66,2.54-9.51,8.76,33.54,40.66,92.33,59.21,143.83,45.81,11.4-1.73,16.73-14.22,22.26-22.84,9.2-15.14,17.53-30.9,24.95-46.99,9.02,4.61,21.3,7.87,25.64,8.68,24.95,2.23,33.56-26.51,37.65-45.86,46.05-60.85,49.46-147.87,12.16-212.97-28.43-78.03,27.34-156.9,112.18-159.59,80.49,2.7,133.49,69.52,132.3,145.81-59.71,16.27-112.4,65.08-124.45,126.76Z"/>
        <path class="cls-7" d="M514.35,290.16l25.87,14.9c.06.04.13.05.2.08,1.3,6.76,1.81,14,2.42,20.54,2.23,8.22,14.76,4.88,12.61-3.34-1.36-5.89-3.71-13.68-6.2-20,0-.02.02-.03.03-.04l12.06-24.75c.97-1.99.85-4.34-.32-6.22-1.17-1.88-3.23-3.03-5.45-3.05-5.59-.04-11.2.49-16.66,1.57-8.57,1.71-16.82,4.78-24.51,9.13-2.02,1.14-3.27,3.27-3.28,5.59,0,2.31,1.23,4.46,3.24,5.61ZM541.44,282.49c1.12-.22,2.25-.42,3.38-.58l-4.14,8.51-9.04-5.2c3.2-1.15,6.47-2.05,9.8-2.72Z"/>
        <path class="cls-7" d="M538.57,254.16c6.97.77,4.7-8.53,8.25-11.57,4.63-5.51,11.19-1.85,14,4,1.23,4.16,7.61,4.23,8.57-.17,2.53-11.36-8.34-23.06-20.68-21.14-12.37,1.92-19.32,16.28-13.6,26.53.71,1.21,1.95,2.12,3.45,2.34Z"/>
        <path class="cls-7" d="M467.74,275.81c2.92.32,5.31-2.06,5.32-4.93,1.79-15.67,14.18-21.78,24.71-8.22,2.42,4.19,9.4,2.37,9.22-2.58.3-14.36-16.4-26.93-30.49-21.15-13.93,5.39-19.75,22.77-12.34,34.64.76,1.21,2.06,2.09,3.59,2.25Z"/>
      </g>
    </g>
  </g>
  <g>
    <path class="cls-8" d="M21.64,1206.98c.77-2.32,3.09-2.7,5.02-1.54,15.07,8.89,31.3,15.84,44.43,15.84,8.12.77,13.52-3.86,13.52-9.66C84.61,1191.91,0,1198.09,0,1125.45,0,1084.11,35.16,1056.29,87.71,1056.29c25.11,0,55.25,8.89,75.73,22.02,1.93,1.55,3.09,3.48,2.32,5.41l-19.71,45.59c-.77,2.32-3.09,2.7-5.02,1.54-15.07-9.66-31.3-15.84-44.44-15.84-8.11-.77-13.52,3.09-13.52,9.27,0,20.48,84.61,13.14,84.61,86.55,0,41.34-34,69.16-85.39,69.16-25.11,0-56.41-8.89-78.05-22.02-1.93-1.93-3.09-3.86-2.32-6.18l19.7-44.82Z"/>
    <path class="cls-8" d="M404.15,1167.95c0,67.23-45.59,112.05-113.59,112.05s-113.59-44.82-113.59-111.66,45.59-112.05,113.59-112.05,113.59,44.82,113.59,111.66ZM252.31,1168.34c0,25.11,15.45,42.11,38.25,42.11s38.25-17,38.25-42.5-15.46-42.11-38.25-42.11-38.25,17-38.25,42.5Z"/>
    <path class="cls-8" d="M548.28,1061.7c3.09,0,5.41,2.32,5.41,5.41v50.23c0,3.09-2.32,5.41-5.41,5.41h-10.05c-14.68,0-27.82,6.57-32.84,16.23v129.43c0,3.09-2.7,5.8-5.8,5.8h-68c-3.09,0-5.8-2.7-5.8-5.8v-200.91c0-2.71,2.71-5.41,5.8-5.41h43.66c3.09,0,5.02,2.7,6.18,5.8l5.8,17c11.59-14.3,30.52-23.18,51-23.18h10.05Z"/>
    <path class="cls-8" d="M701.28,1061.7c3.48,0,5.8,2.32,5.8,5.41l-4.25,37.48c-.38,3.09-2.7,5.79-5.8,5.79h-24.73v158.02c0,3.09-2.7,5.8-5.79,5.8h-68c-3.09,0-5.8-2.7-5.8-5.8v-158.02h-22.02c-2.7,0-5.41-2.32-5.41-5.41v-37.48c0-3.48,2.7-5.8,5.41-5.8h22.02v-42.12c0-2.7,2.7-5.02,5.8-5.41l68-6.57c3.09-.39,5.79,2.7,5.79,5.41v48.68h28.98Z"/>
    <path class="cls-8" d="M721.77,1017.27c.38-6.18,3.86-9.66,9.27-9.66h40.95c4.25,0,6.18,2.7,5.41,6.95l-17,51.77c-1.93,5.8-5.41,9.66-9.66,10.43l-25.89,5.41c-5.02,1.16-8.11,0-7.72-3.48l4.64-61.43Z"/>
    <path class="cls-8" d="M1014.24,994.09c3.09,0,5.8,2.7,5.8,5.41v268.91c0,3.09-2.7,5.8-5.8,5.8h-43.66c-2.7,0-4.64-2.32-6.18-5.8l-5.8-13.91c-14.68,15.46-39.41,25.5-65.29,25.5-61.05,0-102-44.82-102-112.05s40.95-111.66,102-111.66c18.16,0,35.54,5.41,47.13,14.68v-71.48c0-2.71,2.7-5.41,5.8-5.41h68ZM940.45,1144c-4.64-12.75-17-21.25-30.52-21.25-21.25,0-35.54,17.77-35.54,44.82s14.3,46.36,35.54,46.36c13.52,0,25.89-8.5,30.52-21.25v-48.68Z"/>
  </g>
</svg>