<?xml version="1.0" encoding="UTF-8"?>
<svg id="Layer_1" data-name="Layer 1" xmlns="http://www.w3.org/2000/svg" viewBox="0 0 1064.07 1280">
  <defs>
    <style>
      .cls-1 {
        fill: #000;
        stroke-width: 0px;
      }
    </style>
  </defs>
  <g>
    <path class="cls-1" d="M22.57,1203.82c.81-2.42,3.23-2.82,5.24-1.61,15.72,9.27,32.65,16.52,46.35,16.52,8.47.81,14.11-4.03,14.11-10.07C88.27,1188.11,0,1194.55,0,1118.78,0,1075.66,36.68,1046.64,91.49,1046.64c26.19,0,57.64,9.27,78.99,22.97,2.02,1.61,3.23,3.63,2.42,5.64l-20.56,47.56c-.81,2.42-3.22,2.82-5.24,1.61-15.72-10.07-32.65-16.52-46.35-16.52-8.46-.81-14.1,3.22-14.1,9.67,0,21.36,88.27,13.7,88.27,90.28,0,43.13-35.47,72.15-89.08,72.15-26.19,0-58.84-9.27-81.41-22.97-2.02-2.02-3.22-4.03-2.42-6.45l20.55-46.75Z"/>
    <path class="cls-1" d="M421.6,1163.12c0,70.13-47.56,116.88-118.5,116.88s-118.49-46.75-118.49-116.48,47.56-116.88,118.49-116.88,118.5,46.75,118.5,116.48ZM263.2,1163.52c0,26.2,16.12,43.93,39.9,43.93s39.9-17.73,39.9-44.34-16.12-43.93-39.9-43.93-39.9,17.73-39.9,44.34Z"/>
    <path class="cls-1" d="M571.94,1052.28c3.22,0,5.64,2.42,5.64,5.64v52.39c0,3.22-2.42,5.64-5.64,5.64h-10.48c-15.31,0-29.02,6.85-34.26,16.93v135.02c0,3.23-2.82,6.05-6.05,6.05h-70.94c-3.22,0-6.05-2.82-6.05-6.05v-209.58c0-2.82,2.83-5.64,6.05-5.64h45.54c3.23,0,5.24,2.82,6.45,6.05l6.05,17.73c12.09-14.91,31.84-24.18,53.2-24.18h10.48Z"/>
    <path class="cls-1" d="M731.55,1052.28c3.63,0,6.05,2.42,6.05,5.64l-4.44,39.09c-.4,3.22-2.82,6.04-6.05,6.04h-25.79v164.84c0,3.23-2.82,6.05-6.04,6.05h-70.94c-3.23,0-6.05-2.82-6.05-6.05v-164.84h-22.97c-2.82,0-5.64-2.42-5.64-5.64v-39.09c0-3.63,2.82-6.05,5.64-6.05h22.97v-43.93c0-2.82,2.82-5.24,6.05-5.64l70.94-6.85c3.22-.41,6.04,2.82,6.04,5.64v50.78h30.23Z"/>
    <path class="cls-1" d="M752.92,1005.93c.4-6.45,4.03-10.07,9.67-10.07h42.72c4.43,0,6.45,2.82,5.64,7.25l-17.73,54.01c-2.02,6.05-5.64,10.08-10.08,10.88l-27,5.64c-5.24,1.21-8.46,0-8.06-3.63l4.84-64.08Z"/>
    <path class="cls-1" d="M1058.02,981.75c3.23,0,6.05,2.82,6.05,5.64v280.51c0,3.23-2.82,6.05-6.05,6.05h-45.54c-2.82,0-4.84-2.42-6.45-6.05l-6.05-14.51c-15.32,16.12-41.11,26.6-68.11,26.6-63.68,0-106.4-46.75-106.4-116.88s42.72-116.48,106.4-116.48c18.94,0,37.08,5.64,49.17,15.32v-74.56c0-2.82,2.82-5.64,6.05-5.64h70.93ZM981.04,1138.13c-4.84-13.3-17.73-22.17-31.84-22.17-22.16,0-37.08,18.54-37.08,46.75s14.91,48.37,37.08,48.37c14.11,0,27-8.87,31.84-22.17v-50.78Z"/>
  </g>
  <g>
    <g>
      <path class="cls-1" d="M628,575.19c-19.83,3.05-37.55,11.62-52.12,25.43-2.82,2.71-7.36,2.55-9.94-.4-5.39-7.78,4.95-17.04,9.67-22.84,13.47-13.67,34.5-20.43,53.23-15.62,7.1,1.71,6.29,12.65-.85,13.43h0Z"/>
      <path class="cls-1" d="M632.91,536.37c-34.23,1.77-66.01,14.4-90.08,38.76-5.36,5.74-14.86-1.77-10.61-8.28,10.12-16.63,25.98-29.93,44.12-37.9,18.13-7.99,38.83-10.59,57.86-5.98,3.65.88,5.89,4.56,5.01,8.21-.73,3.01-3.35,5.06-6.29,5.19h0Z"/>
      <path class="cls-1" d="M640.05,497.5c-50.73-2.65-101.12,19.28-131.49,60.42-4.84,6.55-15.23-.02-11.38-7.2,19.95-38.02,59.91-64.4,102.45-69.25,9.38-.55,50.62-3.5,47.25,10.93-.81,3.16-3.71,5.23-6.84,5.09h0Z"/>
    </g>
    <g>
      <path class="cls-1" d="M907.76,245.27c-98.43-46.96-205.43,15.56-229.09,102.56-.11-.08-.21-.16-.32-.24-11.51-7.69-24.25-12.37-37.44-15.04,22.68-18.56,33.94-51.39,26.55-80.75-7.91-40.98-40.37-70.72-69.46-96.07-3.82-2.9-7.58-6.26-11.41-9.58,14.94-35.7,18.66-76.19,12.36-114.47-.12-.82-.98-5.06-1.09-5.76-2.92-15.28-22.48-22.24-34.57-12.58-40.11,25.76-70.48,72.18-69.01,120.56-8.01,1.14-16.21,2.54-24.42,4.22-1.07-44.74-25.69-87.41-58.15-117.73-6-5.47-11.31-9.97-18.68-15.3-18.88-12.89-43.85.17-45.74,22.89-10.76,52.24-2.06,110.04,27.84,154.38-5.11,6.1-8.86,12.85-10.85,20.29-6.1,24.52-5.9,50-.47,74.28-157.94,70.7-220.46,260.84-151.21,418.87,105.07,242.71,439.33,272.26,595.71,64.24,20.61-27.4,34.69-60.38,41.98-93.4,12.15-47.21,6.19-94.05,33.07-132.83,25.1-34.68,67.61-48.08,109.29-52.51,11.57-1.27,21.26-10.43,22.92-22.47,15.97-85.03-25.33-179.94-107.82-213.54ZM649.62,637.58c-4.29-14.36-22.17-14.93-32.51-11.33-18.35,4.19-32.07,15.96-42.48,30.58-4.02-27.22-21.79-53.05-47.69-64.1-23.33-11.34-51.32-9.41-73.77,2.28-12.36-21.28-18.96-41.81-22.45-56.79,34.76-29.11,72.52-54.56,113.35-74.24,39.98-20.97,83.97-32.41,126.93-44.51,12.87,24.91,23.34,50.36,29.18,76.63,12.72,53.67,4.34,110.97-24.59,158.01-6.62,11.03-3.62,25.03-10,36.44-1.5,4-3.18,6.27-7.23,6.84-1.59.13-7.17-1.01-9.3-1.13-4.11-.66-8.24-1.7-12.33-2.98,1.09-2.58,2.17-5.16,3.22-7.74,5.4-14.86,13.92-30.77,9.66-47.95ZM629.46,644.41s-.03-.06,0-.14c0,.04,0,.1,0,.14ZM669.73,378.63c3.26,5.38,2.19,16.14-.2,27.7-46.39,5.94-91.71,20.22-133.72,40.78-41.98,20.78-81.01,47.88-114.29,80.84-16.9-6.6-32.76-18.98-30.89-38.41.01-.17,0-.34,0-.51,9.75,1.46,19.83,1.63,29.44.85,13.77-.58,33.96-.37,46.44-12.8,14.71-17.14,12.97-44.04-.88-61.03-4.91-4.41-10.5-7.48-16.43-9.72,16.48-11.84,34.06-22.04,52.31-29.89,23.14-9.84,48.22-15.87,73.35-18.44,31.27-1.93,75.65-4.69,94.88,20.62ZM475.03,366.46c-.67-7.63-4.12-11.91-1.16-15,2.51-2.88,6.48-7.8,8.92-10.81,3.12-3.67,4.09-6.25,8.08-5.31.58.02,3.57,2.24,4.29,2.64,5.21,3.06,10.35,6.63,15.27,10.43-12.27,5.12-24.12,11.24-35.39,18.3,0-.08-.01-.17-.02-.25ZM575.06,31.23s0,0,0-.01c-.05-.21-.03-.15,0,.01ZM532.38,79.94c11.14-18.04,25.84-33.81,43.3-45.97,7.77,33.83,7.02,68.88-.94,102.79-6.28-4.21-13.04-7.16-20.77-7.01-12.05-.24-28,.44-45.56,2.36,6.42-18.72,14-36.17,23.98-52.18ZM371.47,64.45c.72-11.21,2.92-24.23,5.53-34.26,4.45,3.2,10.21,7.81,14.86,12.03,30.64,26.7,49.51,60.83,65.55,98.68-25.15,6.1-49.38,15.03-67.05,27.64-14.03-33.12-21.36-68.25-18.9-104.09ZM833.83,564.28c-13.01,63.23-13.18,123.51-55.18,173.51-56,69.09-147.13,108.7-235.55,110.55-87.53.49-177.21-35.81-236.29-100-80.01-87.47-102.39-224.61-50.05-332.57,23.69-49.83,63.39-92.1,111.28-123.32,5.2,16.05,12.68,31.34,22.25,45.17,3.9,6.1,14.2,1.66,12.32-5.43-8.53-40.64-15.87-80.69-8.01-120.85,2.29-8.27,7.5-15.77,14.82-20.51,14.94-9.84,30.76-18.49,47.32-25.47,30.4-13.01,63.79-20.98,97.19-20.98,4.84-.11,9.16,1.23,12.83,4.41,51.64,40.98,106.39,129.28,46.83,180.82-14.32-.38-28.59.78-41.89,2.36-15.05,1.9-29.87,5.35-44.25,10.12-4.52-5.71-9.72-10.92-15.4-15.41-2.14-1.49-7.6-5.62-9.75-6.94-8.27-6.02-21.29-4.72-28.5,2.38-5.62,6.01-7.81,9.99-12.49,15.73-3.18,3.81-6.13,9.84-5.99,15.25.85,9.47,4.18,15.45,5.64,23.19-10.52,7.66-20.42,16.16-29.56,25.43-14.34-2.51-28.84-3.18-39.63-7.91-2.95-1.17-6.42-.12-8.19,2.67-9.29,16.62,56.71,26.3,62.34,32.29,7.59,3.29,11.45,29.51.75,34.2-6.47,2.92-17.19,4.09-27.44,4.64-28.67,2.9-61.87,1.38-71.23-30.77-1.03-3.12-4.21-5.12-7.56-4.54-3.67.63-6.14,4.12-5.5,7.79,3.73,26.01,21.41,39.96,42.86,46.16-.3.67-.52,1.39-.58,2.16-3.14,25.33,18.67,44.69,40.31,52.5,3.71,16.08,10.81,38.25,24.23,61.23-10.54,7.87-19.07,18.22-24.14,30.59-3.13,6.76,6.68,12.98,11.43,7.11,51.22-56.29,133.17-16.12,125.19,58.24-3.69,8.83,9.4,13.67,12.65,4.71,13.26-25.76,30.66-57.48,62.61-57.42.07,2.27-.42,5.37-1.34,8.84-12.22,36.17-30.6,71.49-50.3,104.24-15.17,5.43-33.11,6.02-49.44,5.08-32.06-2.64-63.13-17.17-86.68-40.29-6.02-5.85-15.24,2.65-9.89,9.13,34.88,42.4,96.02,61.74,149.58,47.77,11.85-1.8,17.4-14.83,23.15-23.82,9.57-15.79,18.23-32.22,25.95-49,9.38,4.8,22.15,8.21,26.67,9.05,25.95,2.33,34.9-27.65,39.16-47.83,47.89-63.46,51.44-154.2,12.65-222.1-29.57-81.37,28.43-163.63,116.66-166.43,83.7,2.82,138.82,72.5,137.59,152.06-62.09,16.97-116.89,67.87-129.42,132.19Z"/>
      <path class="cls-1" d="M535.32,249.09l26.91,15.53c.06.04.14.05.2.08,1.35,7.05,1.89,14.6,2.52,21.42,2.32,8.57,15.35,5.09,13.11-3.49-1.42-6.15-3.86-14.27-6.44-20.86,0-.02.02-.03.03-.05l12.54-25.82c1.01-2.08.88-4.53-.34-6.49-1.22-1.96-3.36-3.16-5.67-3.18-5.82-.04-11.65.51-17.33,1.64-8.92,1.78-17.49,4.98-25.49,9.52-2.1,1.19-3.4,3.42-3.41,5.83s1.28,4.65,3.37,5.85ZM563.5,241.09c1.16-.23,2.34-.44,3.51-.61l-4.31,8.87-9.4-5.43c3.33-1.2,6.73-2.14,10.2-2.83Z"/>
      <path class="cls-1" d="M560.51,211.54c7.25.8,4.89-8.9,8.58-12.06,4.82-5.75,11.64-1.93,14.56,4.17,1.28,4.33,7.91,4.41,8.91-.17,2.63-11.85-8.68-24.05-21.51-22.04-12.86,2-20.09,16.98-14.14,27.67.73,1.26,2.03,2.21,3.59,2.44Z"/>
      <path class="cls-1" d="M486.85,234.12c3.04.33,5.53-2.15,5.53-5.14,1.86-16.35,14.75-22.71,25.69-8.57,2.52,4.37,9.77,2.47,9.58-2.69.31-14.97-17.05-28.08-31.71-22.06-14.49,5.62-20.54,23.74-12.83,36.12.79,1.26,2.14,2.18,3.73,2.34Z"/>
    </g>
  </g>
</svg>