<?xml version="1.0" encoding="UTF-8"?>
<svg id="Layer_1" data-name="Layer 1" xmlns="http://www.w3.org/2000/svg" viewBox="0 0 1064.07 1280">
  <defs>
    <style>
      .cls-1 {
        fill: #fbe3cd;
      }

      .cls-1, .cls-2, .cls-3, .cls-4, .cls-5, .cls-6, .cls-7, .cls-8, .cls-9 {
        stroke-width: 0px;
      }

      .cls-2 {
        fill: #2eb454;
      }

      .cls-3 {
        fill: #8c5a24;
      }

      .cls-4 {
        fill: #5b4019;
      }

      .cls-5 {
        fill: #875221;
      }

      .cls-6 {
        fill: #21894b;
      }

      .cls-7 {
        fill: #2f1d0f;
      }

      .cls-8 {
        fill: #fff;
      }

      .cls-9 {
        fill: #cc8b43;
      }
    </style>
  </defs>
  <g>
    <path class="cls-7" d="M22.57,1203.82c.81-2.42,3.23-2.82,5.24-1.61,15.72,9.27,32.65,16.52,46.35,16.52,8.47.81,14.11-4.03,14.11-10.07C88.27,1188.11,0,1194.55,0,1118.78,0,1075.66,36.68,1046.64,91.49,1046.64c26.19,0,57.64,9.27,78.99,22.97,2.02,1.61,3.23,3.63,2.42,5.64l-20.56,47.56c-.81,2.42-3.22,2.82-5.24,1.61-15.72-10.07-32.65-16.52-46.35-16.52-8.46-.81-14.1,3.22-14.1,9.67,0,21.36,88.27,13.7,88.27,90.28,0,43.13-35.47,72.15-89.08,72.15-26.19,0-58.84-9.27-81.41-22.97-2.02-2.02-3.22-4.03-2.42-6.45l20.55-46.75Z"/>
    <path class="cls-7" d="M421.6,1163.12c0,70.13-47.56,116.88-118.5,116.88s-118.49-46.75-118.49-116.48,47.56-116.88,118.49-116.88,118.5,46.75,118.5,116.48ZM263.2,1163.52c0,26.2,16.12,43.93,39.9,43.93s39.9-17.73,39.9-44.34-16.12-43.93-39.9-43.93-39.9,17.73-39.9,44.34Z"/>
    <path class="cls-7" d="M571.94,1052.28c3.22,0,5.64,2.42,5.64,5.64v52.39c0,3.22-2.42,5.64-5.64,5.64h-10.48c-15.31,0-29.02,6.85-34.26,16.93v135.02c0,3.23-2.82,6.05-6.05,6.05h-70.94c-3.22,0-6.05-2.82-6.05-6.05v-209.58c0-2.82,2.83-5.64,6.05-5.64h45.54c3.23,0,5.24,2.82,6.45,6.05l6.05,17.73c12.09-14.91,31.84-24.18,53.2-24.18h10.48Z"/>
    <path class="cls-7" d="M731.55,1052.28c3.63,0,6.05,2.42,6.05,5.64l-4.44,39.09c-.4,3.22-2.82,6.04-6.05,6.04h-25.79v164.84c0,3.23-2.82,6.05-6.04,6.05h-70.94c-3.23,0-6.05-2.82-6.05-6.05v-164.84h-22.97c-2.82,0-5.64-2.42-5.64-5.64v-39.09c0-3.63,2.82-6.05,5.64-6.05h22.97v-43.93c0-2.82,2.82-5.24,6.05-5.64l70.94-6.85c3.22-.41,6.04,2.82,6.04,5.64v50.78h30.23Z"/>
    <path class="cls-7" d="M752.92,1005.93c.4-6.45,4.03-10.07,9.67-10.07h42.72c4.43,0,6.45,2.82,5.64,7.25l-17.73,54.01c-2.02,6.05-5.64,10.08-10.08,10.88l-27,5.64c-5.24,1.21-8.46,0-8.06-3.63l4.84-64.08Z"/>
    <path class="cls-7" d="M1058.02,981.75c3.23,0,6.05,2.82,6.05,5.64v280.51c0,3.23-2.82,6.05-6.05,6.05h-45.54c-2.82,0-4.84-2.42-6.45-6.05l-6.05-14.51c-15.32,16.12-41.11,26.6-68.11,26.6-63.68,0-106.4-46.75-106.4-116.88s42.72-116.48,106.4-116.48c18.94,0,37.08,5.64,49.17,15.32v-74.56c0-2.82,2.82-5.64,6.05-5.64h70.93ZM981.04,1138.13c-4.84-13.3-17.73-22.17-31.84-22.17-22.16,0-37.08,18.54-37.08,46.75s14.91,48.37,37.08,48.37c14.11,0,27-8.87,31.84-22.17v-50.78Z"/>
  </g>
  <g>
    <path class="cls-2" d="M717.94,582.13c-4.14,23.09-11.72,41.42-15.95,50.59-5.46,11.81-11.19,21.33-15.86,28.38-.71,5.64-2.2,13.04-5.46,21.15-3.61,8.99-8.11,15.95-11.9,20.71-.44.53-.88,1.06-1.23,1.5-4.94.88-12.87,1.67-22.39-.18-10.05-1.94-17.36-5.99-21.68-8.73-13.75.35-32.7-.53-54.56-6.08-12.69-3.17-31.47-9.34-51.74-21.33-43.89-26-66.01-62.49-73.95-77.12-6.79-12.69-15.07-31.2-20.01-55.26,8.2-7.14,16.31-13.75,24.24-19.74,7.84-5.99,15.51-11.55,22.83-16.57,9.34-6.52,18.16-12.25,26.35-17.19,2.12-1.32,4.23-2.56,6.26-3.79,19.57-11.55,37.63-20.62,53.32-27.76,21.24-9.61,51.38-21.68,88.75-31.38,12.25-3.17,22.56-5.46,29.88-6.87,11.9,15.6,28.91,42.22,38.52,78.79,11.99,45.74,5.99,82.58,4.58,90.87Z"/>
    <path class="cls-5" d="M674.84,412.47c-19.57,3.7-45.04,9.61-74.12,19.48-49.09,16.83-84.96,37.02-101.8,47.24-2.38,1.41-4.41,2.64-5.99,3.61-19.39,12.16-43.8,29.44-69.72,52.97-4.14-1.15-10.49-3.44-17.19-8.02-2.91-2.03-19.57-13.57-22.03-32.17-1.32-9.52,1.59-17.36,4.41-23.71,20.01-45.65,61.7-76.41,68.13-81.09,8.55-6.17,16.57-11.19,23.27-15.07,8.9-5.2,15.51-8.37,17.89-9.52,43.98-20.71,82.23-22.65,96.42-22.92,7.32-.09,75.18-.71,84.52,24.59,1.15,3,1.76,7.23,1.94,8.55,2.29,15.87-2.47,29-5.73,36.05Z"/>
    <path class="cls-4" d="M492.93,482.8c-23.24,17.66-46.48,35.31-69.72,52.97-4.14-1.15-10.49-3.44-17.19-8.02-2.91-2.03-19.57-13.57-22.03-32.17-1.32-9.52,1.59-17.36,4.41-23.71,20.99-47.22,68.13-81.09,68.13-81.09,12.69-9.15,31.9-21.33,57.67-31.79-2.41,10.31-5.97,31.92,1.37,57.48,5.93,20.64,16.41,34.93,23.02,42.64-15.22,7.9-30.44,15.79-45.66,23.69Z"/>
    <path class="cls-6" d="M585.11,692.89s-8.17-1.4-16.21-3.41c-12.69-3.17-31.47-9.34-51.74-21.33-43.89-26-66.01-62.49-73.95-77.12-6.79-12.69-15.07-31.2-20.01-55.26,15.92-13.65,34.65-28.18,56.33-42.52,20.89-13.81,40.85-25.03,59.05-34.14,5.05,33.92,14.29,76.03,31.7,122.42,18.09,48.21,39.82,87.21,59.03,116.68-14.74-1.78-29.47-3.55-44.21-5.33Z"/>
    <path class="cls-4" d="M526.31,353.91c-2.09-4.01-5.46-9.25-10.77-14.25-10.57-9.95-22.47-12.93-28.05-13.95-3.58,2.05-8.54,5.44-13.33,10.74-5.33,5.89-8.31,11.79-9.96,15.81,1.89,4.98,3.74,11.18,4.79,18.44.58,3.97.83,7.66.89,10.99,8.17-5.13,17.44-10.41,27.8-15.5,10.13-4.97,19.76-9,28.64-12.28Z"/>
    <path class="cls-9" d="M864.4,501.88c-20.35,30.96-13.44,56.22-36.89,136.67-1.16,3.97-15.36,52.37-27.94,79.38-43.05,92.48-175.49,167.17-292.37,153.9-76.96-8.73-211.44-96.33-211.44-96.33-74.12-74.83-94.31-176.8-87.87-250.31,1.59-18.24,6.35-67.34,35.34-120.04,5.46-9.78,18.69-32.43,41.07-57.2,21.59-23.71,41.95-38.78,52-45.83,3.09-2.12,6.17-4.14,9.08-6.08,11.99-7.58,22.92-13.4,31.91-17.8-2.64-11.19-5.73-31.2-.53-55,3.61-16.13,9.69-28.64,14.81-37.11,19.3-13.22,50.94-31.47,93.6-41.25,30.76-7.14,57.64-7.67,77.38-6.43,10.22,6.79,24.68,17.54,39.93,32.88,19.13,19.21,38.08,38.25,46.71,68.57,3.7,13.04,10.75,38.08-1.41,64.52-2.03,4.23-14.9,31.02-41.25,39.04-13.57,4.14-19.57-.09-43.98,2.64-15.6,1.76-28.12,5.2-36.22,7.84-9.25-10.14-17.8-17.19-24.06-21.86-6.79-5.02-10.49-6.96-14.81-6.35-4.94.71-8.28,4.58-13.31,10.75-2.91,3.53-6.61,8.73-9.96,15.78.71,4.23,1.41,8.64,2.29,13.04,1.06,5.64,2.2,11.1,3.35,16.39-4.32,2.73-8.81,5.73-13.31,9.08-11.81,8.64-21.68,17.54-29.79,26,10.75,3.35,21.59,6.7,32.43,9.96.13.12.32.31.58.55,2.62,2.56,15.22,15.63,12.38,31.18-1.99,10.86-10.49,17.29-13.25,19.21-9.26,2.3-20.49,4.33-33.32,5.13-15.97,1-29.87-.19-40.87-1.93-.72,3.34-1.4,8.21-.88,14.03.31,3.44,1.48,14.36,9.79,24.65,11.11,13.75,26.44,15.78,29.61,16.22,2.2,10.14,5.46,21.86,10.31,34.46,5.46,14.01,11.63,25.91,17.36,35.52,5.98-2.23,15.23-4.98,26.75-5.53,23.4-1.13,54.32,6.91,71.42,29.23,16.09,21,11.74,43.94,20.79,45.05,8.66,1.06,11.91-20.02,34.29-32.54,9.87-5.52,26.62-11.15,33.01-4.78,6.67,6.66.08,24.49-6.05,41.05-2.67,7.22-5.45,13.1-7.63,17.34,2.73,1.32,7.14,3.35,12.6,5.29,12.87,4.41,23,7.93,31.47,3.61,6.08-3,8.73-8.73,12.07-15.95,4.85-10.31,5.55-19.92,5.46-25.38,11.37-17.19,32.26-54.12,35.43-105.24,2.2-35.87-5.11-64.87-11.19-82.67-6.93-14.55-17.52-42.06-15.58-76.93.38-6.83,6.22-87.26,75.3-125.66,9.94-5.52,48.73-25.49,97.91-14.96,51.8,11.09,79.41,48.36,88.17,60.61,37.41,52.35,29.69,109.13,27.77,121.2-72.85,11.9-103.67,39.9-118.47,62.41Z"/>
    <path class="cls-9" d="M466.31,142.72c-8.59-31-20.44-54.42-29.72-70.02-17.82-29.94-31.57-40.12-38.37-44.57-10.09-6.59-19.62-10.19-26.39-12.22-3.39,4.77-7.97,12.11-11.48,21.8-7.36,20.25-5.17,37.11-2.07,61.01,4.22,32.53,13.85,55.13,17.25,62.68,5.16,11.46,10.56,20.72,14.94,27.54,4.53-6.06,9.06-12.12,13.59-18.18,9.18-5.13,19.34-10.32,30.48-15.33,11.17-5.03,21.83-9.2,31.78-12.68Z"/>
    <path class="cls-9" d="M498.7,143.75c5.47-18.88,12.1-34.09,17.68-45.22,6.37-12.72,15.02-29.73,31.27-48.09,12.37-13.98,24.69-23.71,33.84-30.06,3.8,10.12,7.22,22.14,9.12,35.86,6.13,44.17-7.04,80.35-15.72,99.19-10.51-3.74-23.73-7.47-39.22-9.72-14.04-2.03-26.57-2.35-36.97-1.96Z"/>
    <path class="cls-1" d="M588.05,39.64c-9.39,9.86-21.25,24.36-31.52,43.94-11.08,21.13-16.32,40.53-18.95,54.48,2.73-.99,11.4-3.76,21.76-.55,10.99,3.4,16.68,11.29,18.24,13.62,6.04-13.73,13.54-35.44,14.87-62.9.95-19.67-1.55-36.33-4.4-48.59Z"/>
    <path class="cls-1" d="M392,20.24c-.83,14.05-.73,30.11,1.21,47.7,4.28,38.78,15.89,70.09,26.39,92.11,14.19-4.34,28.39-8.69,42.58-13.03-.69-23.15-6.44-40.73-10.79-51.3-9.22-22.38-23.55-37.77-38.81-54.66-8.24-9.12-15.55-16.17-20.58-20.81Z"/>
    <path class="cls-1" d="M575.09,234.5c-2.85,7.81-5.7,15.63-8.55,23.44-8.76-5.07-17.53-10.14-26.29-15.2,3.5-2.25,8.95-5.18,16.15-6.97,7.77-1.92,14.41-1.73,18.69-1.27Z"/>
    <g>
      <path class="cls-8" d="M628,575.19c-19.83,3.05-37.55,11.62-52.12,25.43-2.82,2.71-7.36,2.55-9.94-.4-5.39-7.78,4.95-17.04,9.67-22.84,13.47-13.67,34.5-20.43,53.23-15.62,7.1,1.71,6.29,12.65-.85,13.43h0Z"/>
      <path class="cls-8" d="M632.91,536.37c-34.23,1.77-66.01,14.4-90.08,38.76-5.36,5.74-14.86-1.77-10.61-8.28,10.12-16.63,25.98-29.93,44.12-37.9,18.13-7.99,38.83-10.59,57.86-5.98,3.65.88,5.89,4.56,5.01,8.21-.73,3.01-3.35,5.06-6.29,5.19h0Z"/>
      <path class="cls-8" d="M640.05,497.5c-50.73-2.65-101.12,19.28-131.49,60.42-4.84,6.55-15.23-.02-11.38-7.2,19.95-38.02,59.91-64.4,102.45-69.25,9.38-.55,50.62-3.5,47.25,10.93-.81,3.16-3.71,5.23-6.84,5.09h0Z"/>
    </g>
    <path class="cls-3" d="M614.46,859.22c-116.03,30.49-238.4-.99-318.69-83.72-75.68-77.97-93.95-180.81-87.87-250.31,5.81-66.4,35.34-120.04,35.34-120.04,5.46-9.78,18.69-32.43,41.07-57.2,21.59-23.71,41.95-38.78,52-45.83,3.09-2.12,6.17-4.14,9.08-6.08,4.23-.35,8.55-.62,12.96-.88-28.48,35.22-78.02,108.53-77.29,205.11.95,125.11,76.01,207.1,104.25,237.28,86.01,91.91,190.93,115.15,229.15,121.67Z"/>
    <g>
      <path class="cls-7" d="M907.76,245.27c-98.43-46.96-205.43,15.56-229.09,102.56-.11-.08-.21-.16-.32-.24-11.51-7.69-24.25-12.37-37.44-15.04,22.68-18.56,33.94-51.39,26.55-80.75-7.91-40.98-40.37-70.72-69.46-96.07-3.82-2.9-7.58-6.26-11.41-9.58,14.94-35.7,18.66-76.19,12.36-114.47-.12-.82-.98-5.06-1.09-5.76-2.92-15.28-22.48-22.24-34.57-12.58-40.11,25.76-70.48,72.18-69.01,120.56-8.01,1.14-16.21,2.54-24.42,4.22-1.07-44.74-25.69-87.41-58.15-117.73-6-5.47-11.31-9.97-18.68-15.3-18.88-12.89-43.85.17-45.74,22.89-10.76,52.24-2.06,110.04,27.84,154.38-5.11,6.1-8.86,12.85-10.85,20.29-6.1,24.52-5.9,50-.47,74.28-157.94,70.7-220.46,260.84-151.21,418.87,105.07,242.71,439.33,272.26,595.71,64.24,20.61-27.4,34.69-60.38,41.98-93.4,12.15-47.21,6.19-94.05,33.07-132.83,25.1-34.68,67.61-48.08,109.29-52.51,11.57-1.27,21.26-10.43,22.92-22.47,15.97-85.03-25.33-179.94-107.82-213.54ZM649.62,637.58c-4.29-14.36-22.17-14.93-32.51-11.33-18.35,4.19-32.07,15.96-42.48,30.58-4.02-27.22-21.79-53.05-47.69-64.1-23.33-11.34-51.32-9.41-73.77,2.28-12.36-21.28-18.96-41.81-22.45-56.79,34.76-29.11,72.52-54.56,113.35-74.24,39.98-20.97,83.97-32.41,126.93-44.51,12.87,24.91,23.34,50.36,29.18,76.63,12.72,53.67,4.34,110.97-24.59,158.01-6.62,11.03-3.62,25.03-10,36.44-1.5,4-3.18,6.27-7.23,6.84-1.59.13-7.17-1.01-9.3-1.13-4.11-.66-8.24-1.7-12.33-2.98,1.09-2.58,2.17-5.16,3.22-7.74,5.4-14.86,13.92-30.77,9.66-47.95ZM629.46,644.41s-.03-.06,0-.14c0,.04,0,.1,0,.14ZM669.73,378.63c3.26,5.38,2.19,16.14-.2,27.7-46.39,5.94-91.71,20.22-133.72,40.78-41.98,20.78-81.01,47.88-114.29,80.84-16.9-6.6-32.76-18.98-30.89-38.41.01-.17,0-.34,0-.51,9.75,1.46,19.83,1.63,29.44.85,13.77-.58,33.96-.37,46.44-12.8,14.71-17.14,12.97-44.04-.88-61.03-4.91-4.41-10.5-7.48-16.43-9.72,16.48-11.84,34.06-22.04,52.31-29.89,23.14-9.84,48.22-15.87,73.35-18.44,31.27-1.93,75.65-4.69,94.88,20.62ZM475.03,366.46c-.67-7.63-4.12-11.91-1.16-15,2.51-2.88,6.48-7.8,8.92-10.81,3.12-3.67,4.09-6.25,8.08-5.31.58.02,3.57,2.24,4.29,2.64,5.21,3.06,10.35,6.63,15.27,10.43-12.27,5.12-24.12,11.24-35.39,18.3,0-.08-.01-.17-.02-.25ZM575.06,31.23s0,0,0-.01c-.05-.21-.03-.15,0,.01ZM532.38,79.94c11.14-18.04,25.84-33.81,43.3-45.97,7.77,33.83,7.02,68.88-.94,102.79-6.28-4.21-13.04-7.16-20.77-7.01-12.05-.24-28,.44-45.56,2.36,6.42-18.72,14-36.17,23.98-52.18ZM371.47,64.45c.72-11.21,2.92-24.23,5.53-34.26,4.45,3.2,10.21,7.81,14.86,12.03,30.64,26.7,49.51,60.83,65.55,98.68-25.15,6.1-49.38,15.03-67.05,27.64-14.03-33.12-21.36-68.25-18.9-104.09ZM833.83,564.28c-13.01,63.23-13.18,123.51-55.18,173.51-56,69.09-147.13,108.7-235.55,110.55-87.53.49-177.21-35.81-236.29-100-80.01-87.47-102.39-224.61-50.05-332.57,23.69-49.83,63.39-92.1,111.28-123.32,5.2,16.05,12.68,31.34,22.25,45.17,3.9,6.1,14.2,1.66,12.32-5.43-8.53-40.64-15.87-80.69-8.01-120.85,2.29-8.27,7.5-15.77,14.82-20.51,14.94-9.84,30.76-18.49,47.32-25.47,30.4-13.01,63.79-20.98,97.19-20.98,4.84-.11,9.16,1.23,12.83,4.41,51.64,40.98,106.39,129.28,46.83,180.82-14.32-.38-28.59.78-41.89,2.36-15.05,1.9-29.87,5.35-44.25,10.12-4.52-5.71-9.72-10.92-15.4-15.41-2.14-1.49-7.6-5.62-9.75-6.94-8.27-6.02-21.29-4.72-28.5,2.38-5.62,6.01-7.81,9.99-12.49,15.73-3.18,3.81-6.13,9.84-5.99,15.25.85,9.47,4.18,15.45,5.64,23.19-10.52,7.66-20.42,16.16-29.56,25.43-14.34-2.51-28.84-3.18-39.63-7.91-2.95-1.17-6.42-.12-8.19,2.67-9.29,16.62,56.71,26.3,62.34,32.29,7.59,3.29,11.45,29.51.75,34.2-6.47,2.92-17.19,4.09-27.44,4.64-28.67,2.9-61.87,1.38-71.23-30.77-1.03-3.12-4.21-5.12-7.56-4.54-3.67.63-6.14,4.12-5.5,7.79,3.73,26.01,21.41,39.96,42.86,46.16-.3.67-.52,1.39-.58,2.16-3.14,25.33,18.67,44.69,40.31,52.5,3.71,16.08,10.81,38.25,24.23,61.23-10.54,7.87-19.07,18.22-24.14,30.59-3.13,6.76,6.68,12.98,11.43,7.11,51.22-56.29,133.17-16.12,125.19,58.24-3.69,8.83,9.4,13.67,12.65,4.71,13.26-25.76,30.66-57.48,62.61-57.42.07,2.27-.42,5.37-1.34,8.84-12.22,36.17-30.6,71.49-50.3,104.24-15.17,5.43-33.11,6.02-49.44,5.08-32.06-2.64-63.13-17.17-86.68-40.29-6.02-5.85-15.24,2.65-9.89,9.13,34.88,42.4,96.02,61.74,149.58,47.77,11.85-1.8,17.4-14.83,23.15-23.82,9.57-15.79,18.23-32.22,25.95-49,9.38,4.8,22.15,8.21,26.67,9.05,25.95,2.33,34.9-27.65,39.16-47.83,47.89-63.46,51.44-154.2,12.65-222.1-29.57-81.37,28.43-163.63,116.66-166.43,83.7,2.82,138.82,72.5,137.59,152.06-62.09,16.97-116.89,67.87-129.42,132.19Z"/>
      <path class="cls-7" d="M535.32,249.09l26.91,15.53c.06.04.14.05.2.08,1.35,7.05,1.89,14.6,2.52,21.42,2.32,8.57,15.35,5.09,13.11-3.49-1.42-6.15-3.86-14.27-6.44-20.86,0-.02.02-.03.03-.05l12.54-25.82c1.01-2.08.88-4.53-.34-6.49-1.22-1.96-3.36-3.16-5.67-3.18-5.82-.04-11.65.51-17.33,1.64-8.92,1.78-17.49,4.98-25.49,9.52-2.1,1.19-3.4,3.42-3.41,5.83,0,2.41,1.28,4.65,3.37,5.85ZM563.5,241.09c1.16-.23,2.34-.44,3.51-.61l-4.31,8.87-9.4-5.43c3.33-1.2,6.73-2.14,10.2-2.83Z"/>
      <path class="cls-7" d="M560.51,211.54c7.25.8,4.89-8.9,8.58-12.06,4.82-5.75,11.64-1.93,14.56,4.17,1.28,4.33,7.91,4.41,8.91-.17,2.63-11.85-8.68-24.05-21.51-22.04-12.86,2-20.09,16.98-14.14,27.67.73,1.26,2.03,2.21,3.59,2.44Z"/>
      <path class="cls-7" d="M486.85,234.12c3.04.33,5.53-2.15,5.53-5.14,1.86-16.35,14.75-22.71,25.69-8.57,2.52,4.37,9.77,2.47,9.58-2.69.31-14.97-17.05-28.08-31.71-22.06-14.49,5.62-20.54,23.74-12.83,36.12.79,1.26,2.14,2.18,3.73,2.34Z"/>
    </g>
  </g>
</svg>