<?xml version="1.0" encoding="UTF-8"?>
<svg id="Layer_1" data-name="Layer 1" xmlns="http://www.w3.org/2000/svg" viewBox="0 0 1030.89 1280">
  <defs>
    <style>
      .cls-1 {
        fill: #000;
      }

      .cls-1, .cls-2 {
        stroke-width: 0px;
      }

      .cls-2 {
        fill: #fff;
      }
    </style>
  </defs>
  <g>
    <path class="cls-2" d="M893.29,239.56c-28.07-13.12-57.69-19.78-88.07-19.78-43.82,0-85.82,14.01-120.56,37.94-13.81-36-39.5-62.8-61.72-82.94,7.72-32.55,8.96-67.48,3.36-101.42h-.01c-.21-1.21-.55-3.07-.88-4.78l-.22-1.11-.02-.14-.15-.79c-6.44-33.61-36.45-58-71.36-58-15.07,0-29.81,4.76-41.88,13.47-19.43,12.72-36.3,28.61-49.94,46.49-9.07-12.42-19.52-24.21-31.23-35.12l-.23-.22-.23-.21c-5.86-5.33-12.64-11.24-22.46-18.32l-.57-.41-.58-.39C393.27,4.78,377.87,0,362.01,0c-40.03,0-74.2,30.55-79.35,70.22-10.69,54.37-3.75,109.91,19.07,156.97-.56,1.71-1.08,3.44-1.55,5.18l-.12.44-.11.44c-4.38,17.58-6.31,35.97-5.79,54.47-149.61,88.58-211.35,282.78-137.26,451.38,60.31,138.92,194.44,225.35,349.97,225.35,124.17,0,237.56-55.95,311.11-153.51,23.24-30.81,40.27-68.3,49.29-108.47,4.74-18.64,6.97-36.58,8.95-52.43,3.01-24.2,5.4-43.37,14.79-57.21,11.64-15.65,34.7-25.4,68.53-28.98,34.56-3.8,61.98-30.04,67.36-64.08,20.02-108.79-37.24-220.21-133.61-260.21Z"/>
    <g>
      <g>
        <path class="cls-1" d="M603.46,602.87c-19.07,2.93-36.1,11.14-50.12,24.38-2.71,2.6-7.08,2.45-9.56-.38-5.18-7.46,4.76-16.34,9.3-21.91,12.95-13.1,33.18-19.59,51.19-14.98,6.83,1.64,6.05,12.13-.81,12.88h0Z"/>
        <path class="cls-1" d="M608.19,565.65c-32.91,1.7-63.48,13.81-86.62,37.17-5.16,5.5-14.29-1.69-10.2-7.94,9.73-15.95,24.98-28.7,42.43-36.34,17.43-7.66,37.34-10.16,55.63-5.73,3.51.85,5.66,4.37,4.81,7.87-.7,2.88-3.22,4.85-6.05,4.98h0Z"/>
        <path class="cls-1" d="M615.05,528.37c-48.79-2.54-97.23,18.49-126.43,57.94-4.66,6.28-14.64-.02-10.94-6.9,19.18-36.46,57.61-61.75,98.52-66.4,9.02-.53,48.67-3.35,45.43,10.48-.77,3.03-3.57,5.01-6.58,4.88h0Z"/>
      </g>
      <g>
        <path class="cls-1" d="M872.48,286.51c-94.64-45.03-197.53,14.92-220.29,98.34-.11-.07-.2-.15-.31-.23-11.07-7.38-23.32-11.86-36-14.42,21.81-17.8,32.64-49.28,25.53-77.43-7.61-39.3-38.82-67.81-66.8-92.13-3.68-2.78-7.29-6-10.97-9.19,14.36-34.24,17.94-73.06,11.88-109.76-.11-.79-.94-4.85-1.05-5.53-2.81-14.65-21.61-21.33-33.24-12.06-38.57,24.71-67.77,69.21-66.36,115.61-7.7,1.09-15.59,2.44-23.48,4.05-1.03-42.9-24.7-83.82-55.91-112.9-5.77-5.25-10.87-9.56-17.96-14.67-18.16-12.36-42.17.16-43.98,21.95-10.35,50.09-1.98,105.52,26.77,148.04-4.92,5.85-8.52,12.32-10.43,19.45-5.86,23.52-5.67,47.94-.45,71.23-151.87,67.8-211.99,250.12-145.4,401.66,101.04,232.74,422.45,261.08,572.83,61.6,19.82-26.28,33.35-57.9,40.37-89.56,11.68-45.27,5.96-90.18,31.79-127.38,24.14-33.26,65.01-46.11,105.09-50.35,11.12-1.22,20.44-10,22.04-21.55,15.35-81.54-24.36-172.55-103.68-204.77ZM624.26,662.7c-4.13-13.77-21.32-14.31-31.26-10.87-17.64,4.02-30.84,15.3-40.85,29.32-3.87-26.1-20.95-50.87-45.86-61.47-22.44-10.87-49.35-9.02-70.94,2.19-11.89-20.41-18.23-40.09-21.58-54.46,33.43-27.91,69.74-52.32,108.99-71.19,38.45-20.11,80.74-31.08,122.06-42.69,12.38,23.88,22.44,48.3,28.06,73.49,12.23,51.47,4.18,106.41-23.64,151.52-6.36,10.58-3.48,24-9.62,34.94-1.44,3.83-3.05,6.02-6.95,6.56-1.53.13-6.9-.97-8.94-1.08-3.95-.63-7.93-1.63-11.85-2.86,1.05-2.47,2.09-4.94,3.09-7.43,5.2-14.25,13.38-29.51,9.29-45.98ZM604.87,669.25s-.03-.06,0-.13c0,.04,0,.09,0,.13ZM643.59,414.38c3.14,5.16,2.1,15.48-.19,26.56-44.61,5.69-88.19,19.39-128.58,39.11-40.36,19.92-77.9,45.91-109.89,77.52-16.25-6.33-31.5-18.2-29.7-36.83.01-.17,0-.32,0-.49,9.37,1.4,19.07,1.56,28.31.82,13.24-.56,32.66-.35,44.66-12.27,14.15-16.44,12.47-42.23-.85-58.52-4.72-4.23-10.1-7.17-15.8-9.32,15.85-11.35,32.75-21.13,50.3-28.67,22.25-9.43,46.37-15.21,70.53-17.68,30.07-1.85,72.74-4.49,91.23,19.77ZM456.37,402.72c-.64-7.31-3.96-11.43-1.11-14.38,2.41-2.76,6.24-7.48,8.58-10.36,3-3.52,3.93-6,7.77-5.09.55.02,3.43,2.15,4.13,2.53,5.01,2.94,9.96,6.36,14.69,10-11.79,4.91-23.19,10.78-34.03,17.54,0-.08-.01-.16-.02-.24ZM552.56,81.26s0,0,0-.01c-.05-.2-.03-.14,0,.01ZM511.52,127.96c10.71-17.3,24.84-32.42,41.63-44.08,7.47,32.44,6.75,66.05-.91,98.57-6.04-4.04-12.54-6.86-19.97-6.72-11.59-.23-26.92.42-43.81,2.27,6.18-17.95,13.46-34.68,23.06-50.04ZM356.79,113.11c.69-10.75,2.81-23.24,5.32-32.85,4.28,3.07,9.82,7.49,14.29,11.54,29.46,25.6,47.61,58.33,63.04,94.62-24.18,5.85-47.48,14.42-64.47,26.5-13.49-31.76-20.54-65.45-18.17-99.81ZM801.38,592.41c-12.51,60.63-12.67,118.43-53.06,166.38-53.84,66.25-141.48,104.23-226.5,106.01-84.17.47-170.41-34.34-227.21-95.89-76.93-83.88-98.46-215.38-48.12-318.91,22.78-47.78,60.96-88.31,107.01-118.26,5,15.39,12.2,30.05,21.4,43.31,3.75,5.85,13.65,1.59,11.85-5.2-8.2-38.97-15.26-77.38-7.71-115.88,2.2-7.93,7.21-15.12,14.25-19.67,14.37-9.43,29.58-17.73,45.51-24.42,29.23-12.47,61.34-20.12,93.45-20.12,4.65-.1,8.81,1.18,12.34,4.23,49.66,39.3,102.3,123.97,45.03,173.39-13.77-.36-27.49.75-40.28,2.26-14.47,1.82-28.72,5.13-42.55,9.7-4.35-5.47-9.35-10.47-14.8-14.77-2.06-1.43-7.31-5.39-9.38-6.65-7.95-5.77-20.47-4.53-27.41,2.29-5.41,5.77-7.51,9.58-12.01,15.08-3.06,3.66-5.9,9.43-5.76,14.62.81,9.08,4.02,14.81,5.42,22.23-10.12,7.35-19.63,15.49-28.42,24.38-13.79-2.4-27.73-3.05-38.11-7.58-2.84-1.12-6.17-.11-7.87,2.56-8.93,15.94,54.53,25.22,59.95,30.96,7.3,3.16,11.01,28.29.72,32.8-6.22,2.8-16.53,3.93-26.39,4.45-27.57,2.78-59.5,1.32-68.49-29.51-.99-2.99-4.05-4.91-7.27-4.35-3.53.61-5.9,3.95-5.29,7.47,3.59,24.95,20.59,38.31,41.21,44.27-.29.64-.5,1.33-.56,2.07-3.02,24.29,17.95,42.85,38.76,50.34,3.57,15.42,10.4,36.68,23.3,58.72-10.13,7.55-18.34,17.47-23.21,29.33-3.01,6.48,6.42,12.45,10.99,6.82,49.25-53.98,128.05-15.46,120.38,55.85-3.54,8.46,9.04,13.11,12.16,4.51,12.75-24.7,29.48-55.12,60.21-55.06.07,2.18-.41,5.15-1.29,8.48-11.75,34.69-29.42,68.55-48.37,99.95-14.58,5.21-31.83,5.77-47.54,4.87-30.83-2.54-60.71-16.46-83.35-38.64-5.79-5.61-14.66,2.54-9.51,8.76,33.54,40.66,92.33,59.21,143.83,45.81,11.4-1.73,16.73-14.22,22.26-22.84,9.2-15.14,17.53-30.9,24.95-46.99,9.02,4.61,21.3,7.87,25.64,8.68,24.95,2.23,33.56-26.51,37.65-45.86,46.05-60.85,49.46-147.87,12.16-212.97-28.43-78.03,27.34-156.9,112.18-159.59,80.49,2.7,133.49,69.52,132.3,145.81-59.71,16.27-112.4,65.08-124.45,126.76Z"/>
        <path class="cls-1" d="M514.35,290.16l25.87,14.9c.06.04.13.05.2.08,1.3,6.76,1.81,14,2.42,20.54,2.23,8.22,14.76,4.88,12.61-3.34-1.36-5.89-3.71-13.68-6.2-20,0-.02.02-.03.03-.04l12.06-24.75c.97-1.99.85-4.34-.32-6.22-1.17-1.88-3.23-3.03-5.45-3.05-5.59-.04-11.2.49-16.66,1.57-8.57,1.71-16.82,4.78-24.51,9.13-2.02,1.14-3.27,3.27-3.28,5.59,0,2.31,1.23,4.46,3.24,5.61ZM541.44,282.49c1.12-.22,2.25-.42,3.38-.58l-4.14,8.51-9.04-5.2c3.2-1.15,6.47-2.05,9.8-2.72Z"/>
        <path class="cls-1" d="M538.57,254.16c6.97.77,4.7-8.53,8.25-11.57,4.63-5.51,11.19-1.85,14,4,1.23,4.16,7.61,4.23,8.57-.17,2.53-11.36-8.34-23.06-20.68-21.14-12.37,1.92-19.32,16.28-13.6,26.53.71,1.21,1.95,2.12,3.45,2.34Z"/>
        <path class="cls-1" d="M467.74,275.81c2.92.32,5.31-2.06,5.32-4.93,1.79-15.67,14.18-21.78,24.71-8.22,2.42,4.19,9.4,2.37,9.22-2.58.3-14.36-16.4-26.93-30.49-21.15-13.93,5.39-19.75,22.77-12.34,34.64.76,1.21,2.06,2.09,3.59,2.25Z"/>
      </g>
    </g>
  </g>
  <g>
    <path class="cls-2" d="M21.64,1206.98c.77-2.32,3.09-2.7,5.02-1.54,15.07,8.89,31.3,15.84,44.43,15.84,8.12.77,13.52-3.86,13.52-9.66C84.61,1191.91,0,1198.09,0,1125.45,0,1084.11,35.16,1056.29,87.71,1056.29c25.11,0,55.25,8.89,75.73,22.02,1.93,1.55,3.09,3.48,2.32,5.41l-19.71,45.59c-.77,2.32-3.09,2.7-5.02,1.54-15.07-9.66-31.3-15.84-44.44-15.84-8.11-.77-13.52,3.09-13.52,9.27,0,20.48,84.61,13.14,84.61,86.55,0,41.34-34,69.16-85.39,69.16-25.11,0-56.41-8.89-78.05-22.02-1.93-1.93-3.09-3.86-2.32-6.18l19.7-44.82Z"/>
    <path class="cls-2" d="M404.15,1167.95c0,67.23-45.59,112.05-113.59,112.05s-113.59-44.82-113.59-111.66,45.59-112.05,113.59-112.05,113.59,44.82,113.59,111.66ZM252.31,1168.34c0,25.11,15.45,42.11,38.25,42.11s38.25-17,38.25-42.5-15.46-42.11-38.25-42.11-38.25,17-38.25,42.5Z"/>
    <path class="cls-2" d="M548.28,1061.7c3.09,0,5.41,2.32,5.41,5.41v50.23c0,3.09-2.32,5.41-5.41,5.41h-10.05c-14.68,0-27.82,6.57-32.84,16.23v129.43c0,3.09-2.7,5.8-5.8,5.8h-68c-3.09,0-5.8-2.7-5.8-5.8v-200.91c0-2.71,2.71-5.41,5.8-5.41h43.66c3.09,0,5.02,2.7,6.18,5.8l5.8,17c11.59-14.3,30.52-23.18,51-23.18h10.05Z"/>
    <path class="cls-2" d="M701.28,1061.7c3.48,0,5.8,2.32,5.8,5.41l-4.25,37.48c-.38,3.09-2.7,5.79-5.8,5.79h-24.73v158.02c0,3.09-2.7,5.8-5.79,5.8h-68c-3.09,0-5.8-2.7-5.8-5.8v-158.02h-22.02c-2.7,0-5.41-2.32-5.41-5.41v-37.48c0-3.48,2.7-5.8,5.41-5.8h22.02v-42.12c0-2.7,2.7-5.02,5.8-5.41l68-6.57c3.09-.39,5.79,2.7,5.79,5.41v48.68h28.98Z"/>
    <path class="cls-2" d="M721.77,1017.27c.38-6.18,3.86-9.66,9.27-9.66h40.95c4.25,0,6.18,2.7,5.41,6.95l-17,51.77c-1.93,5.8-5.41,9.66-9.66,10.43l-25.89,5.41c-5.02,1.16-8.11,0-7.72-3.48l4.64-61.43Z"/>
    <path class="cls-2" d="M1014.24,994.09c3.09,0,5.8,2.7,5.8,5.41v268.91c0,3.09-2.7,5.8-5.8,5.8h-43.66c-2.7,0-4.64-2.32-6.18-5.8l-5.8-13.91c-14.68,15.46-39.41,25.5-65.29,25.5-61.05,0-102-44.82-102-112.05s40.95-111.66,102-111.66c18.16,0,35.54,5.41,47.13,14.68v-71.48c0-2.71,2.7-5.41,5.8-5.41h68ZM940.45,1144c-4.64-12.75-17-21.25-30.52-21.25-21.25,0-35.54,17.77-35.54,44.82s14.3,46.36,35.54,46.36c13.52,0,25.89-8.5,30.52-21.25v-48.68Z"/>
  </g>
</svg>