<?xml version="1.0" encoding="UTF-8"?>
<svg id="Layer_1" data-name="Layer 1" xmlns="http://www.w3.org/2000/svg" viewBox="0 0 1201.55 1280">
  <defs>
    <style>
      .cls-1 {
        fill: #000;
      }

      .cls-1, .cls-2 {
        stroke-width: 0px;
      }

      .cls-2 {
        fill: #fff;
      }
    </style>
  </defs>
  <path class="cls-2" d="M1018.94,317.94c-37.25-17.42-76.57-26.25-116.88-26.25-58.16,0-113.9,18.59-160,50.35-18.32-47.78-52.43-83.35-81.92-110.08,10.24-43.19,11.89-89.56,4.45-134.6h-.01c-.27-1.61-.72-4.07-1.17-6.35l-.29-1.47-.03-.18-.2-1.05c-8.54-44.6-48.37-76.98-94.7-76.98-20,0-39.56,6.32-55.59,17.87-25.79,16.88-48.17,37.96-66.28,61.69-12.04-16.48-25.9-32.13-41.44-46.61l-.31-.29-.31-.28c-7.78-7.07-16.77-14.91-29.8-24.32l-.76-.55-.77-.52C355.32,6.34,334.88,0,313.83,0c-53.13,0-98.47,40.55-105.31,93.19-14.19,72.16-4.97,145.87,25.3,208.33-.75,2.27-1.43,4.56-2.05,6.87l-.16.59-.15.59c-5.82,23.33-8.38,47.74-7.68,72.3C25.23,499.42-56.71,757.16,41.63,980.93c80.04,184.37,258.06,299.07,464.47,299.07,164.79,0,315.29-74.26,412.89-203.74,30.84-40.89,53.45-90.65,65.42-143.96,6.29-24.74,9.26-48.54,11.88-69.58,4-32.12,7.17-57.56,19.63-75.93,15.45-20.77,46.05-33.71,90.95-38.46,45.87-5.04,82.26-39.86,89.4-85.04,26.57-144.38-49.42-292.26-177.33-345.34Z"/>
  <g>
    <g>
      <path class="cls-1" d="M634.29,800.12c-25.31,3.89-47.92,14.78-66.52,32.36-3.59,3.45-9.39,3.25-12.69-.51-6.88-9.9,6.31-21.69,12.35-29.07,17.18-17.39,44.03-26,67.93-19.88,9.06,2.18,8.03,16.1-1.08,17.1h0Z"/>
      <path class="cls-1" d="M640.56,750.71c-43.68,2.25-84.25,18.33-114.96,49.33-6.85,7.3-18.96-2.25-13.54-10.54,12.91-21.17,33.15-38.09,56.31-48.23,23.14-10.17,49.56-13.48,73.83-7.61,4.66,1.13,7.52,5.8,6.39,10.45-.93,3.82-4.28,6.43-8.03,6.61h0Z"/>
      <path class="cls-1" d="M649.67,701.24c-64.75-3.37-129.04,24.54-167.8,76.9-6.18,8.33-19.44-.03-14.52-9.16,25.46-48.39,76.46-81.95,130.75-88.13,11.97-.71,64.6-4.45,60.3,13.9-1.03,4.02-4.74,6.65-8.73,6.48h0Z"/>
    </g>
    <g>
      <path class="cls-1" d="M991.32,380.24c-125.61-59.77-262.16,19.8-292.36,130.52-.14-.1-.27-.2-.41-.3-14.69-9.79-30.95-15.74-47.78-19.14,28.95-23.62,43.31-65.41,33.88-102.77-10.1-52.16-51.52-90-88.65-122.27-4.88-3.69-9.68-7.97-14.56-12.2,19.06-45.44,23.81-96.96,15.77-145.68-.15-1.05-1.25-6.44-1.39-7.34-3.73-19.45-28.69-28.3-44.12-16.01-51.19,32.79-89.94,91.85-88.07,153.43-10.22,1.45-20.69,3.23-31.16,5.38-1.36-56.94-32.79-111.24-74.2-149.83-7.66-6.96-14.43-12.68-23.84-19.47-24.1-16.41-55.96.21-58.37,29.13-13.73,66.48-2.63,140.04,35.53,196.47-6.52,7.77-11.3,16.35-13.85,25.82-7.78,31.21-7.53,63.63-.6,94.53C95.58,510.5,15.78,752.48,104.17,953.59c134.09,308.89,560.66,346.49,760.24,81.75,26.3-34.87,44.27-76.84,53.58-118.87,15.51-60.08,7.91-119.69,42.2-169.05,32.03-44.14,86.28-61.19,139.48-66.82,14.76-1.62,27.13-13.27,29.25-28.6,20.38-108.22-32.33-229-137.6-271.76ZM661.88,879.52c-5.48-18.27-28.29-19-41.49-14.42-23.41,5.34-40.93,20.31-54.21,38.92-5.13-34.64-27.81-67.51-60.86-81.58-29.78-14.43-65.49-11.97-94.15,2.9-15.78-27.08-24.2-53.21-28.64-72.27,44.36-37.04,92.55-69.44,144.65-94.48,51.02-26.69,107.16-41.25,161.99-56.65,16.43,31.7,29.78,64.1,37.24,97.53,16.24,68.31,5.54,141.22-31.38,201.09-8.44,14.04-4.62,31.86-12.76,46.37-1.91,5.09-4.05,7.98-9.23,8.7-2.03.17-9.15-1.29-11.87-1.43-5.25-.84-10.52-2.16-15.73-3.79,1.39-3.28,2.77-6.56,4.1-9.86,6.9-18.91,17.76-39.16,12.33-61.03ZM636.15,888.2s-.04-.08,0-.18c0,.05,0,.12,0,.18ZM687.54,549.96c4.16,6.85,2.79,20.54-.26,35.25-59.2,7.56-117.04,25.74-170.65,51.9-53.57,26.44-103.38,60.93-145.85,102.88-21.56-8.4-41.81-24.16-39.42-48.88.02-.22-.01-.43,0-.65,12.44,1.85,25.31,2.08,37.57,1.08,17.57-.74,43.34-.47,59.27-16.29,18.78-21.81,16.55-56.04-1.12-77.67-6.27-5.61-13.4-9.52-20.97-12.37,21.03-15.06,43.47-28.04,66.76-38.04,29.53-12.52,61.54-20.19,93.6-23.46,39.91-2.46,96.54-5.96,121.08,26.24ZM439.07,534.48c-.85-9.71-5.25-15.16-1.48-19.09,3.2-3.66,8.28-9.93,11.38-13.75,3.99-4.67,5.21-7.96,10.31-6.75.74.03,4.55,2.85,5.48,3.36,6.66,3.9,13.21,8.44,19.49,13.27-15.65,6.52-30.78,14.31-45.16,23.28-.01-.11-.02-.22-.03-.32ZM566.73,107.84s0-.01,0-.02c-.06-.27-.04-.18,0,.02ZM512.26,169.83c14.21-22.96,32.97-43.02,55.26-58.5,9.92,43.05,8.96,87.66-1.21,130.82-8.02-5.36-16.65-9.11-26.5-8.92-15.38-.3-35.73.56-58.15,3.01,8.2-23.83,17.87-46.03,30.6-66.41ZM306.91,150.12c.92-14.26,3.73-30.84,7.06-43.6,5.67,4.07,13.03,9.94,18.96,15.31,39.1,33.98,63.19,77.42,83.66,125.58-32.09,7.76-63.02,19.13-85.56,35.17-17.9-42.15-27.26-86.86-24.12-132.46ZM896.96,786.23c-16.6,80.47-16.81,157.18-70.42,220.82-71.46,87.93-187.76,138.34-300.6,140.69-111.71.63-226.16-45.57-301.55-127.27-102.1-111.32-130.67-285.84-63.87-423.25,30.23-63.42,80.9-117.21,142.02-156.94,6.63,20.42,16.19,39.88,28.39,57.48,4.97,7.77,18.12,2.11,15.72-6.91-10.88-51.72-20.25-102.69-10.23-153.8,2.92-10.52,9.57-20.07,18.91-26.1,19.07-12.52,39.26-23.53,60.39-32.41,38.8-16.55,81.41-26.7,124.03-26.7,6.18-.14,11.69,1.57,16.38,5.62,65.91,52.16,135.78,164.53,59.76,230.12-18.28-.48-36.48,1-53.46,3-19.21,2.42-38.11,6.81-56.47,12.87-5.77-7.26-12.41-13.89-19.65-19.61-2.73-1.89-9.7-7.15-12.44-8.83-10.56-7.66-27.17-6.01-36.37,3.03-7.18,7.65-9.96,12.72-15.95,20.02-4.06,4.85-7.83,12.52-7.64,19.41,1.08,12.05,5.34,19.66,7.2,29.51-13.43,9.75-26.06,20.56-37.72,32.36-18.3-3.19-36.8-4.04-50.58-10.06-3.76-1.49-8.19-.15-10.45,3.39-11.85,21.15,72.37,33.47,79.56,41.1,9.69,4.19,14.61,37.55.96,43.53-8.26,3.72-21.93,5.21-35.02,5.91-36.59,3.69-78.96,1.75-90.9-39.16-1.31-3.97-5.38-6.52-9.65-5.78-4.69.81-7.83,5.25-7.02,9.92,4.76,33.11,27.32,50.85,54.7,58.75-.38.86-.66,1.77-.74,2.75-4.01,32.23,23.83,56.87,51.44,66.81,4.74,20.46,13.8,48.68,30.92,77.93-13.45,10.01-24.34,23.19-30.8,38.93-3.99,8.6,8.52,16.53,14.59,9.05,65.36-71.63,169.95-20.51,159.76,74.12-4.7,11.23,11.99,17.4,16.14,5.99,16.92-32.78,39.13-73.15,79.9-73.08.09,2.89-.54,6.83-1.71,11.25-15.59,46.04-39.05,90.98-64.2,132.66-19.35,6.91-42.25,7.66-63.09,6.46-40.92-3.37-80.57-21.85-110.62-51.28-7.68-7.45-19.45,3.37-12.62,11.62,44.51,53.97,122.53,78.58,190.89,60.8,15.13-2.29,22.2-18.87,29.55-30.31,12.21-20.09,23.26-41,33.11-62.37,11.97,6.11,28.27,10.44,34.03,11.52,33.11,2.96,44.54-35.19,49.97-60.87,61.11-80.76,65.65-196.25,16.14-282.65-37.73-103.55,36.28-208.24,148.88-211.8,106.82,3.59,177.16,92.26,175.58,193.52-79.24,21.59-149.17,86.38-165.16,168.23Z"/>
      <path class="cls-1" d="M516.02,385.1l34.34,19.77c.08.05.18.06.26.11,1.73,8.97,2.41,18.58,3.21,27.26,2.96,10.91,19.59,6.48,16.74-4.44-1.81-7.82-4.92-18.16-8.22-26.55.01-.02.03-.04.04-.06l16-32.85c1.29-2.64,1.13-5.76-.43-8.26-1.55-2.5-4.28-4.03-7.23-4.05-7.42-.05-14.87.65-22.11,2.09-11.38,2.26-22.33,6.34-32.53,12.11-2.68,1.52-4.34,4.35-4.35,7.42-.01,3.07,1.63,5.91,4.3,7.45ZM551.97,374.91c1.48-.3,2.98-.55,4.48-.78l-5.5,11.29-12-6.91c4.25-1.52,8.59-2.73,13.01-3.61Z"/>
      <path class="cls-1" d="M548.16,337.31c9.26,1.02,6.24-11.32,10.95-15.35,6.15-7.32,14.85-2.46,18.58,5.31,1.63,5.52,10.1,5.61,11.38-.22,3.36-15.08-11.07-30.6-27.45-28.05-16.42,2.55-25.64,21.61-18.04,35.22.94,1.61,2.59,2.81,4.58,3.1Z"/>
      <path class="cls-1" d="M454.15,366.04c3.88.42,7.05-2.74,7.06-6.55,2.37-20.8,18.82-28.91,32.79-10.91,3.21,5.56,12.47,3.15,12.23-3.43.4-19.05-21.76-35.73-40.47-28.07-18.49,7.15-26.21,30.21-16.38,45.97,1,1.61,2.73,2.78,4.76,2.98Z"/>
    </g>
  </g>
</svg>