<?xml version="1.0" encoding="UTF-8"?>
<svg id="Layer_1" data-name="Layer 1" xmlns="http://www.w3.org/2000/svg" viewBox="0 0 1188.28 1280">
  <defs>
    <style>
      .cls-1 {
        fill: #000;
        stroke-width: 0px;
      }
    </style>
  </defs>
  <g>
    <path class="cls-1" d="M631.47,819.18c-28.24,4.35-53.47,16.54-74.23,36.21-4.01,3.86-10.48,3.63-14.16-.57-7.68-11.08,7.05-24.27,13.78-32.53,19.18-19.46,49.14-29.09,75.81-22.25,10.12,2.44,8.96,18.02-1.2,19.13h0Z"/>
    <path class="cls-1" d="M638.46,763.89c-48.75,2.52-94.02,20.51-128.3,55.2-7.64,8.17-21.16-2.51-15.11-11.8,14.41-23.69,36.99-42.63,62.84-53.97,25.82-11.38,55.3-15.08,82.4-8.52,5.2,1.26,8.39,6.49,7.13,11.69-1.04,4.28-4.77,7.2-8.96,7.39h0Z"/>
    <path class="cls-1" d="M648.63,708.53c-72.26-3.77-144.01,27.46-187.26,86.05-6.9,9.32-21.69-.04-16.2-10.25,28.41-54.15,85.33-91.71,145.91-98.62,13.36-.79,72.09-4.98,67.29,15.56-1.15,4.5-5.29,7.45-9.74,7.25h0Z"/>
  </g>
  <g>
    <path class="cls-1" d="M1029.9,349.32c-140.18-66.88-292.57,22.16-326.27,146.06-.16-.11-.3-.23-.46-.34-16.4-10.95-34.53-17.61-53.32-21.41,32.3-26.43,48.34-73.19,37.81-115-11.27-58.37-57.49-100.71-98.93-136.83-5.45-4.13-10.8-8.92-16.24-13.65,21.27-50.85,26.57-108.5,17.6-163.02-.17-1.17-1.4-7.2-1.56-8.21-4.16-21.76-32.01-31.67-49.24-17.91-57.13,36.69-100.37,102.79-98.28,171.7-11.41,1.62-23.09,3.62-34.78,6.02-1.52-63.72-36.59-124.49-82.81-167.67-8.55-7.79-16.1-14.19-26.6-21.79-26.89-18.36-62.45.24-65.14,32.6-15.32,74.4-2.94,156.72,39.65,219.87-7.28,8.69-12.62,18.29-15.45,28.89-8.68,34.93-8.4,71.21-.67,105.79C30.29,495.08-58.76,765.87,39.87,990.93c149.64,345.67,625.68,387.75,848.4,91.49,29.35-39.02,49.4-85.99,59.79-133.02,17.3-67.24,8.82-133.94,47.09-189.18,35.75-49.39,96.29-68.48,155.65-74.78,16.47-1.81,30.28-14.85,32.65-32,22.74-121.1-36.08-256.27-153.56-304.12ZM662.26,908.03c-6.11-20.45-31.57-21.26-46.3-16.14-26.13,5.97-45.67,22.72-60.5,43.55-5.73-38.77-31.04-75.55-67.92-91.29-33.23-16.15-73.09-13.4-105.07,3.25-17.6-30.31-27.01-59.54-31.97-80.88,49.51-41.45,103.29-77.71,161.43-105.73,56.94-29.87,119.59-46.16,180.78-63.4,18.33,35.47,33.24,71.73,41.56,109.14,18.12,76.44,6.19,158.04-35.02,225.04-9.42,15.71-5.16,35.65-14.24,51.89-2.13,5.69-4.52,8.94-10.3,9.74-2.27.19-10.22-1.44-13.25-1.6-5.86-.94-11.74-2.42-17.56-4.24,1.55-3.67,3.09-7.34,4.58-11.03,7.7-21.16,19.82-43.82,13.76-68.29ZM633.54,917.76s-.04-.08,0-.2c0,.06,0,.14,0,.2ZM690.9,539.23c4.64,7.66,3.12,22.98-.29,39.45-66.07,8.46-130.62,28.8-190.44,58.08-59.78,29.59-115.37,68.19-162.76,115.13-24.06-9.4-46.66-27.03-43.99-54.7.02-.25-.01-.48-.01-.72,13.88,2.07,28.24,2.32,41.92,1.21,19.61-.83,48.37-.53,66.14-18.23,20.95-24.41,18.47-62.72-1.25-86.91-7-6.28-14.96-10.65-23.4-13.84,23.47-16.86,48.51-31.38,74.5-42.57,32.95-14.01,68.67-22.6,104.46-26.26,44.54-2.75,107.74-6.67,135.12,29.36ZM413.61,521.91c-.95-10.86-5.86-16.97-1.65-21.36,3.57-4.1,9.24-11.11,12.7-15.39,4.45-5.23,5.82-8.91,11.51-7.56.82.03,5.08,3.19,6.12,3.76,7.43,4.36,14.75,9.44,21.75,14.85-17.47,7.29-34.35,16.01-50.4,26.06-.01-.12-.02-.24-.03-.36ZM556.08,44.48s0-.01,0-.02c-.07-.3-.04-.21,0,.02ZM495.29,113.85c15.86-25.7,36.8-48.14,61.66-65.47,11.07,48.18,10,98.1-1.35,146.4-8.95-6-18.58-10.19-29.58-9.98-17.16-.34-39.88.63-64.89,3.37,9.15-26.66,19.94-51.51,34.15-74.32ZM266.12,91.79c1.02-15.96,4.16-34.51,7.88-48.79,6.33,4.55,14.54,11.12,21.16,17.14,43.64,38.02,70.52,86.64,93.36,140.53-35.81,8.68-70.33,21.41-95.49,39.36-19.98-47.17-30.42-97.2-26.92-148.24ZM924.6,803.64c-18.53,90.05-18.76,175.89-78.59,247.11-79.75,98.4-209.54,154.81-335.47,157.45-124.66.7-252.39-51-336.52-142.42-113.95-124.57-145.83-319.88-71.27-473.64,33.73-70.97,90.28-131.16,158.48-175.63,7.4,22.85,18.06,44.63,31.69,64.33,5.55,8.69,20.22,2.36,17.54-7.73-12.15-57.88-22.6-114.92-11.41-172.11,3.25-11.78,10.68-22.46,21.1-29.21,21.28-14.01,43.81-26.34,67.4-36.27,43.3-18.52,90.85-29.88,138.41-29.88,6.89-.15,13.04,1.76,18.28,6.29,73.55,58.37,151.52,184.12,66.69,257.52-20.4-.54-40.71,1.11-59.66,3.36-21.44,2.71-42.54,7.62-63.02,14.41-6.44-8.13-13.85-15.55-21.93-21.94-3.05-2.12-10.83-8-13.89-9.88-11.78-8.57-30.32-6.73-40.59,3.39-8.01,8.56-11.12,14.23-17.79,22.4-4.53,5.43-8.74,14.01-8.53,21.72,1.21,13.48,5.96,22,8.03,33.02-14.98,10.91-29.08,23.01-42.1,36.21-20.42-3.57-41.07-4.52-56.44-11.26-4.2-1.67-9.14-.17-11.66,3.8-13.23,23.67,80.76,37.46,88.79,45.99,10.82,4.69,16.3,42.02,1.07,48.71-9.22,4.16-24.48,5.83-39.08,6.61-40.83,4.13-88.12,1.96-101.44-43.82-1.46-4.44-6-7.29-10.77-6.47-5.23.9-8.74,5.87-7.83,11.1,5.32,37.05,30.49,56.91,61.04,65.75-.42.96-.73,1.98-.82,3.08-4.47,36.07,26.59,63.64,57.41,74.77,5.29,22.9,15.4,54.48,34.5,87.21-15.01,11.21-27.16,25.95-34.37,43.56-4.45,9.63,9.51,18.49,16.28,10.13,72.94-80.16,189.66-22.96,178.29,82.94-5.25,12.57,13.39,19.47,18.01,6.7,18.88-36.68,43.67-81.86,89.17-81.78.1,3.23-.6,7.64-1.91,12.59-17.4,51.52-43.58,101.81-71.64,148.45-21.6,7.74-47.15,8.58-70.41,7.23-45.66-3.77-89.91-24.45-123.45-57.38-8.58-8.33-21.71,3.77-14.08,13.01,49.68,60.39,136.75,87.93,213.03,68.03,16.88-2.57,24.78-21.11,32.97-33.92,13.63-22.48,25.96-45.89,36.95-69.79,13.35,6.84,31.55,11.69,37.98,12.9,36.96,3.31,49.7-39.38,55.76-68.11,68.2-90.37,73.26-219.61,18.02-316.31-42.11-115.88,40.49-233.03,166.14-237.02,119.21,4.01,197.71,103.25,195.95,216.56-88.43,24.17-166.47,96.66-184.31,188.26Z"/>
    <path class="cls-1" d="M499.48,354.75l38.32,22.12c.09.05.2.07.29.12,1.93,10.03,2.69,20.8,3.59,30.51,3.3,12.2,21.87,7.25,18.68-4.96-2.02-8.75-5.49-20.32-9.18-29.71.01-.02.03-.04.04-.07l17.86-36.77c1.44-2.96,1.26-6.45-.48-9.24s-4.78-4.51-8.07-4.53c-8.28-.06-16.59.72-24.68,2.34-12.7,2.53-24.91,7.1-36.3,13.56-2.99,1.7-4.84,4.86-4.86,8.3-.01,3.44,1.82,6.62,4.79,8.34ZM539.6,343.35c1.66-.33,3.33-.62,5-.87l-6.14,12.63-13.39-7.73c4.74-1.7,9.59-3.05,14.52-4.04Z"/>
    <path class="cls-1" d="M535.35,301.27c10.33,1.14,6.96-12.67,12.22-17.18,6.86-8.19,16.57-2.75,20.74,5.95,1.82,6.17,11.27,6.28,12.69-.25,3.74-16.87-12.36-34.25-30.63-31.4-18.32,2.85-28.61,24.18-20.14,39.41,1.04,1.8,2.89,3.15,5.11,3.47Z"/>
    <path class="cls-1" d="M430.44,333.43c4.33.47,7.87-3.07,7.88-7.33,2.64-23.28,21.01-32.35,36.59-12.21,3.59,6.22,13.92,3.52,13.65-3.84.44-21.32-24.29-39.99-45.16-31.41-20.64,8-29.25,33.81-18.28,51.45,1.12,1.8,3.05,3.11,5.32,3.34Z"/>
  </g>
</svg>