<?xml version="1.0" encoding="UTF-8"?>
<svg id="Layer_1" data-name="Layer 1" xmlns="http://www.w3.org/2000/svg" viewBox="0 0 1280 413.94">
  <defs>
    <style>
      .cls-1 {
        fill: #fbe3cd;
      }

      .cls-1, .cls-2, .cls-3, .cls-4, .cls-5, .cls-6, .cls-7, .cls-8, .cls-9 {
        stroke-width: 0px;
      }

      .cls-2 {
        fill: #2eb454;
      }

      .cls-3 {
        fill: #8c5a24;
      }

      .cls-4 {
        fill: #5b4019;
      }

      .cls-5 {
        fill: #875221;
      }

      .cls-6 {
        fill: #21894b;
      }

      .cls-7 {
        fill: #2f1d0f;
      }

      .cls-8 {
        fill: #fff;
      }

      .cls-9 {
        fill: #cc8b43;
      }
    </style>
  </defs>
  <path class="cls-8" d="M328.6,102.82c-12.01-5.63-24.69-8.49-37.69-8.49-18.75,0-36.73,6.01-51.6,16.28-5.91-15.45-16.91-26.95-26.42-35.6,3.3-13.97,3.83-28.96,1.44-43.53h0c-.09-.52-.23-1.32-.38-2.05l-.09-.48v-.06s-.07-.34-.07-.34c-2.75-14.42-15.6-24.89-30.54-24.9-6.45,0-12.76,2.04-17.93,5.78-8.32,5.46-15.54,12.28-21.37,19.95-3.88-5.33-8.35-10.39-13.37-15.07l-.1-.09-.1-.09c-2.51-2.29-5.41-4.82-9.61-7.86l-.24-.18-.25-.17C114.59,2.05,108,0,101.21,0c-17.13,0-31.76,13.11-33.96,30.14-4.58,23.34-1.6,47.17,8.16,67.37-.24.73-.46,1.47-.66,2.22l-.05.19-.05.19c-1.88,7.55-2.7,15.44-2.48,23.38C8.14,161.51-18.29,244.86,13.42,317.22c25.81,59.62,83.22,96.72,149.79,96.72,53.15,0,101.68-24.01,133.16-65.89,9.95-13.22,17.24-29.32,21.1-46.56,2.03-8,2.98-15.7,3.83-22.5,1.29-10.39,2.31-18.61,6.33-24.56,4.98-6.72,14.85-10.9,29.33-12.44,14.79-1.63,26.53-12.89,28.83-27.5,8.57-46.69-15.94-94.51-57.19-111.68Z"/>
  <path class="cls-8" d="M449.01,265.18c.64-1.93,2.57-2.25,4.18-1.28,12.54,7.4,26.05,13.18,36.98,13.18,6.76.64,11.26-3.22,11.26-8.04,0-16.4-70.43-11.26-70.43-71.71,0-34.41,29.26-57.56,73-57.56,20.9,0,45.99,7.4,63.03,18.33,1.61,1.29,2.57,2.89,1.93,4.5l-16.4,37.95c-.64,1.93-2.57,2.25-4.18,1.28-12.55-8.04-26.05-13.18-36.98-13.18-6.75-.64-11.25,2.57-11.25,7.72,0,17.04,70.43,10.93,70.43,72.03,0,34.41-28.3,57.56-71.07,57.56-20.9,0-46.95-7.4-64.96-18.33-1.61-1.61-2.57-3.22-1.93-5.15l16.4-37.3Z"/>
  <path class="cls-8" d="M767.38,232.71c0,55.96-37.95,93.26-94.55,93.26s-94.54-37.3-94.54-92.94,37.95-93.26,94.54-93.26,94.55,37.3,94.55,92.94ZM641,233.03c0,20.9,12.86,35.05,31.83,35.05s31.84-14.15,31.84-35.37-12.86-35.05-31.84-35.05-31.83,14.15-31.83,35.37Z"/>
  <path class="cls-8" d="M887.34,144.27c2.57,0,4.5,1.93,4.5,4.5v41.8c0,2.57-1.93,4.5-4.5,4.5h-8.36c-12.22,0-23.15,5.47-27.33,13.51v107.73c0,2.57-2.25,4.82-4.82,4.82h-56.6c-2.57,0-4.82-2.25-4.82-4.82v-167.22c0-2.25,2.25-4.5,4.82-4.5h36.34c2.57,0,4.18,2.25,5.15,4.82l4.82,14.15c9.65-11.9,25.41-19.29,42.45-19.29h8.36Z"/>
  <path class="cls-8" d="M1014.69,144.27c2.89,0,4.82,1.93,4.82,4.5l-3.54,31.19c-.32,2.57-2.25,4.82-4.82,4.82h-20.58v131.53c0,2.57-2.25,4.82-4.82,4.82h-56.6c-2.57,0-4.82-2.25-4.82-4.82v-131.53h-18.33c-2.25,0-4.5-1.93-4.5-4.5v-31.19c0-2.89,2.25-4.82,4.5-4.82h18.33v-35.05c0-2.25,2.25-4.18,4.82-4.5l56.6-5.47c2.57-.32,4.82,2.25,4.82,4.5v40.52h24.12Z"/>
  <path class="cls-8" d="M1031.74,107.29c.32-5.15,3.22-8.04,7.72-8.04h34.09c3.54,0,5.14,2.25,4.5,5.79l-14.15,43.09c-1.61,4.82-4.5,8.04-8.04,8.68l-21.55,4.5c-4.18.96-6.75,0-6.43-2.89l3.86-51.13Z"/>
  <path class="cls-8" d="M1275.18,88c2.57,0,4.82,2.25,4.82,4.5v223.82c0,2.57-2.25,4.82-4.82,4.82h-36.34c-2.25,0-3.86-1.93-5.14-4.82l-4.82-11.58c-12.22,12.86-32.8,21.23-54.35,21.23-50.81,0-84.9-37.3-84.9-93.26s34.09-92.94,84.9-92.94c15.11,0,29.58,4.5,39.23,12.22v-59.49c0-2.25,2.25-4.5,4.82-4.5h56.6ZM1213.76,212.77c-3.86-10.61-14.15-17.69-25.41-17.69-17.68,0-29.58,14.79-29.58,37.3s11.9,38.59,29.58,38.59c11.26,0,21.55-7.07,25.41-17.69v-40.52Z"/>
  <g>
    <path class="cls-2" d="M241.57,261.6c-1.7,9.5-4.82,17.05-6.57,20.82-2.25,4.86-4.61,8.78-6.53,11.68-.29,2.32-.91,5.37-2.25,8.71-1.49,3.7-3.34,6.57-4.9,8.52-.18.22-.36.44-.51.62-2.03.36-5.3.69-9.21-.07-4.14-.8-7.15-2.47-8.92-3.59-5.66.15-13.46-.22-22.45-2.5-5.22-1.31-12.95-3.85-21.29-8.78-18.06-10.7-27.17-25.72-30.43-31.74-2.79-5.22-6.2-12.84-8.23-22.74,3.37-2.94,6.71-5.66,9.98-8.13,3.23-2.47,6.38-4.75,9.39-6.82,3.85-2.68,7.47-5.04,10.85-7.07.87-.54,1.74-1.05,2.58-1.56,8.05-4.75,15.49-8.49,21.95-11.43,8.74-3.95,21.15-8.92,36.53-12.91,5.04-1.31,9.29-2.25,12.3-2.83,4.9,6.42,11.9,17.38,15.85,32.43,4.93,18.83,2.47,33.99,1.89,37.4Z"/>
    <path class="cls-5" d="M223.83,191.78c-8.05,1.52-18.54,3.95-30.51,8.02-20.2,6.93-34.97,15.23-41.9,19.44-.98.58-1.81,1.09-2.47,1.49-7.98,5.01-18.03,12.12-28.69,21.8-1.7-.47-4.32-1.41-7.07-3.3-1.2-.83-8.05-5.59-9.07-13.24-.54-3.92.65-7.15,1.81-9.76,8.23-18.79,25.39-31.45,28.04-33.37,3.52-2.54,6.82-4.61,9.58-6.2,3.66-2.14,6.38-3.45,7.36-3.92,18.1-8.52,33.84-9.32,39.68-9.43,3.01-.04,30.94-.29,34.79,10.12.47,1.23.73,2.97.8,3.52.94,6.53-1.02,11.93-2.36,14.84Z"/>
    <path class="cls-4" d="M148.96,220.72c-9.56,7.27-19.13,14.53-28.69,21.8-1.7-.47-4.32-1.41-7.07-3.3-1.2-.83-8.05-5.59-9.07-13.24-.54-3.92.65-7.15,1.81-9.76,8.64-19.44,28.04-33.37,28.04-33.37,5.22-3.77,13.13-8.78,23.74-13.08-.99,4.24-2.46,13.14.56,23.65,2.44,8.5,6.75,14.38,9.47,17.55-6.26,3.25-12.53,6.5-18.79,9.75Z"/>
    <path class="cls-6" d="M186.9,307.19s-3.36-.58-6.67-1.4c-5.22-1.31-12.95-3.85-21.29-8.78-18.06-10.7-27.17-25.72-30.43-31.74-2.79-5.22-6.2-12.84-8.23-22.74,6.55-5.62,14.26-11.6,23.18-17.5,8.6-5.69,16.81-10.3,24.3-14.05,2.08,13.96,5.88,31.29,13.05,50.39,7.45,19.84,16.39,35.89,24.3,48.02-6.06-.73-12.13-1.46-18.19-2.19Z"/>
    <path class="cls-4" d="M162.7,167.68c-.86-1.65-2.25-3.81-4.43-5.87-4.35-4.09-9.25-5.32-11.55-5.74-1.47.85-3.51,2.24-5.49,4.42-2.19,2.43-3.42,4.85-4.1,6.51.78,2.05,1.54,4.6,1.97,7.59.24,1.63.34,3.15.37,4.52,3.36-2.11,7.18-4.28,11.44-6.38,4.17-2.05,8.13-3.7,11.79-5.05Z"/>
    <path class="cls-9" d="M301.85,228.58c-8.37,12.74-5.53,23.14-15.18,56.25-.48,1.63-6.32,21.55-11.5,32.67-17.72,38.06-72.22,68.8-120.33,63.34-31.67-3.59-87.02-39.65-87.02-39.65-30.51-30.8-38.81-72.77-36.17-103.02.65-7.51,2.61-27.71,14.55-49.4,2.25-4.03,7.69-13.35,16.9-23.54,8.89-9.76,17.27-15.96,21.4-18.86,1.27-.87,2.54-1.7,3.74-2.5,4.93-3.12,9.43-5.51,13.13-7.33-1.09-4.61-2.36-12.84-.22-22.63,1.49-6.64,3.99-11.79,6.09-15.27,7.94-5.44,20.97-12.95,38.52-16.98,12.66-2.94,23.72-3.16,31.85-2.65,4.21,2.79,10.16,7.22,16.43,13.53,7.87,7.91,15.67,15.74,19.23,28.22,1.52,5.37,4.43,15.67-.58,26.55-.83,1.74-6.13,12.77-16.98,16.07-5.59,1.7-8.05-.04-18.1,1.09-6.42.73-11.57,2.14-14.91,3.23-3.81-4.17-7.33-7.07-9.9-9-2.79-2.07-4.32-2.87-6.09-2.61-2.03.29-3.41,1.89-5.48,4.43-1.2,1.45-2.72,3.59-4.1,6.49.29,1.74.58,3.55.94,5.37.44,2.32.91,4.57,1.38,6.75-1.78,1.12-3.63,2.36-5.48,3.74-4.86,3.55-8.92,7.22-12.26,10.7,4.43,1.38,8.89,2.76,13.35,4.1.05.05.13.13.24.23,1.08,1.05,6.27,6.43,5.1,12.83-.82,4.47-4.32,7.12-5.45,7.9-3.81.94-8.43,1.78-13.71,2.11-6.57.41-12.29-.08-16.82-.79-.3,1.38-.58,3.38-.36,5.77.13,1.41.61,5.91,4.03,10.14,4.57,5.66,10.88,6.49,12.19,6.67.91,4.17,2.25,9,4.24,14.18,2.25,5.77,4.79,10.66,7.15,14.62,2.46-.92,6.27-2.05,11.01-2.28,9.63-.46,22.36,2.84,29.39,12.03,6.62,8.64,4.83,18.09,8.56,18.54,3.56.44,4.9-8.24,14.11-13.39,4.06-2.27,10.96-4.59,13.58-1.97,2.75,2.74.03,10.08-2.49,16.9-1.1,2.97-2.24,5.39-3.14,7.14,1.12.54,2.94,1.38,5.19,2.18,5.3,1.81,9.47,3.26,12.95,1.49,2.5-1.23,3.59-3.59,4.97-6.57,2-4.24,2.29-8.2,2.25-10.45,4.68-7.07,13.28-22.27,14.58-43.31.91-14.76-2.1-26.7-4.61-34.02-2.85-5.99-7.21-17.31-6.41-31.66.16-2.81,2.56-35.91,30.99-51.72,4.09-2.27,20.06-10.49,40.3-6.16,21.32,4.57,32.68,19.9,36.29,24.94,15.4,21.55,12.22,44.92,11.43,49.88-29.98,4.9-42.67,16.42-48.76,25.68Z"/>
    <path class="cls-9" d="M138.01,80.76c-3.53-12.76-8.41-22.4-12.23-28.82-7.33-12.32-12.99-16.51-15.79-18.34-4.15-2.71-8.07-4.19-10.86-5.03-1.4,1.96-3.28,4.98-4.73,8.97-3.03,8.33-2.13,15.27-.85,25.11,1.74,13.39,5.7,22.69,7.1,25.79,2.12,4.72,4.34,8.53,6.15,11.33,1.86-2.49,3.73-4.99,5.59-7.48,3.78-2.11,7.96-4.25,12.54-6.31,4.6-2.07,8.99-3.79,13.08-5.22Z"/>
    <path class="cls-9" d="M151.34,81.18c2.25-7.77,4.98-14.03,7.27-18.61,2.62-5.23,6.18-12.24,12.87-19.79,5.09-5.75,10.16-9.76,13.93-12.37,1.56,4.16,2.97,9.11,3.76,14.76,2.52,18.18-2.9,33.07-6.47,40.82-4.33-1.54-9.77-3.08-16.14-4-5.78-.84-10.94-.97-15.22-.81Z"/>
    <path class="cls-1" d="M188.11,38.34c-3.86,4.06-8.75,10.03-12.97,18.08-4.56,8.7-6.72,16.68-7.8,22.42,1.12-.41,4.69-1.55,8.96-.22,4.52,1.4,6.86,4.65,7.51,5.61,2.48-5.65,5.57-14.58,6.12-25.89.39-8.1-.64-14.95-1.81-20Z"/>
    <path class="cls-1" d="M107.43,30.35c-.34,5.78-.3,12.39.5,19.63,1.76,15.96,6.54,28.85,10.86,37.91,5.84-1.79,11.68-3.57,17.52-5.36-.29-9.53-2.65-16.76-4.44-21.12-3.79-9.21-9.69-15.55-15.97-22.5-3.39-3.75-6.4-6.65-8.47-8.57Z"/>
    <path class="cls-1" d="M182.78,118.53c-1.17,3.22-2.35,6.43-3.52,9.65-3.61-2.09-7.21-4.17-10.82-6.26,1.44-.93,3.68-2.13,6.65-2.87,3.2-.79,5.93-.71,7.69-.52Z"/>
    <g>
      <path class="cls-8" d="M204.55,258.75c-8.16,1.26-15.45,4.78-21.45,10.47-1.16,1.12-3.03,1.05-4.09-.16-2.22-3.2,2.04-7.01,3.98-9.4,5.54-5.62,14.2-8.41,21.91-6.43,2.92.71,2.59,5.21-.35,5.53h0Z"/>
      <path class="cls-8" d="M206.57,242.77c-14.09.73-27.17,5.93-37.08,15.95-2.21,2.36-6.11-.73-4.37-3.41,4.16-6.84,10.69-12.32,18.16-15.6,7.46-3.29,15.98-4.36,23.81-2.46,1.5.36,2.42,1.88,2.06,3.38-.3,1.24-1.38,2.08-2.59,2.14h0Z"/>
      <path class="cls-8" d="M209.51,226.77c-20.88-1.09-41.62,7.93-54.11,24.87-1.99,2.69-6.27-.01-4.68-2.96,8.21-15.65,24.66-26.5,42.17-28.5,3.86-.23,20.83-1.44,19.45,4.5-.33,1.3-1.53,2.15-2.81,2.1h0Z"/>
    </g>
    <path class="cls-3" d="M198.98,375.64c-47.75,12.55-98.11-.41-131.16-34.46-31.15-32.09-38.67-74.41-36.17-103.02,2.39-27.33,14.55-49.4,14.55-49.4,2.25-4.03,7.69-13.35,16.9-23.54,8.89-9.76,17.27-15.96,21.4-18.86,1.27-.87,2.54-1.7,3.74-2.5,1.74-.15,3.52-.25,5.33-.36-11.72,14.49-32.11,44.67-31.81,84.42.39,51.49,31.28,85.23,42.91,97.66,35.4,37.83,78.58,47.39,94.31,50.08Z"/>
    <g>
      <path class="cls-7" d="M319.69,122.97c-40.51-19.33-84.55,6.4-94.29,42.21-.05-.03-.09-.07-.13-.1-4.74-3.17-9.98-5.09-15.41-6.19,9.34-7.64,13.97-21.15,10.93-33.23-3.26-16.87-16.61-29.1-28.59-39.54-1.57-1.19-3.12-2.58-4.69-3.94,6.15-14.69,7.68-31.36,5.09-47.11-.05-.34-.4-2.08-.45-2.37-1.2-6.29-9.25-9.15-14.23-5.18-16.51,10.6-29.01,29.7-28.4,49.62-3.3.47-6.67,1.05-10.05,1.74-.44-18.41-10.57-35.97-23.93-48.45-2.47-2.25-4.65-4.1-7.69-6.3-7.77-5.31-18.05.07-18.82,9.42-4.43,21.5-.85,45.29,11.46,63.54-2.1,2.51-3.65,5.29-4.47,8.35-2.51,10.09-2.43,20.58-.19,30.57C30.82,165.09,5.09,243.34,33.59,308.38c43.24,99.89,180.81,112.05,245.17,26.44,8.48-11.28,14.28-24.85,17.28-38.44,5-19.43,2.55-38.71,13.61-54.67,10.33-14.27,27.83-19.79,44.98-21.61,4.76-.52,8.75-4.29,9.43-9.25,6.57-35-10.43-74.06-44.37-87.88ZM213.45,284.43c-1.77-5.91-9.12-6.14-13.38-4.66-7.55,1.73-13.2,6.57-17.48,12.59-1.65-11.2-8.97-21.83-19.63-26.38-9.6-4.67-21.12-3.87-30.36.94-5.09-8.76-7.8-17.21-9.24-23.37,14.31-11.98,29.85-22.46,46.65-30.56,16.46-8.63,34.56-13.34,52.24-18.32,5.3,10.25,9.61,20.73,12.01,31.54,5.24,22.09,1.79,45.67-10.12,65.03-2.72,4.54-1.49,10.3-4.12,15-.62,1.65-1.31,2.58-2.98,2.82-.66.05-2.95-.42-3.83-.46-1.69-.27-3.39-.7-5.07-1.23.45-1.06.89-2.12,1.32-3.19,2.22-6.12,5.73-12.66,3.98-19.74ZM205.15,287.24s-.01-.02,0-.06c0,.02,0,.04,0,.06ZM221.73,177.85c1.34,2.21.9,6.64-.08,11.4-19.09,2.44-37.75,8.32-55.03,16.78-17.28,8.55-33.34,19.7-47.04,33.27-6.95-2.72-13.48-7.81-12.71-15.81,0-.07,0-.14,0-.21,4.01.6,8.16.67,12.12.35,5.67-.24,13.98-.15,19.11-5.27,6.06-7.05,5.34-18.12-.36-25.12-2.02-1.82-4.32-3.08-6.76-4,6.78-4.87,14.02-9.07,21.53-12.3,9.52-4.05,19.85-6.53,30.19-7.59,12.87-.8,31.13-1.93,39.05,8.48ZM141.6,172.84c-.27-3.14-1.69-4.9-.48-6.17,1.03-1.18,2.67-3.21,3.67-4.45,1.29-1.51,1.68-2.57,3.33-2.18.24,0,1.47.92,1.77,1.09,2.15,1.26,4.26,2.73,6.29,4.29-5.05,2.11-9.93,4.63-14.56,7.53,0-.03,0-.07,0-.1ZM182.77,34.87s0,0,0,0c-.02-.09-.01-.06,0,0ZM165.2,54.92c4.58-7.43,10.63-13.91,17.82-18.92,3.2,13.92,2.89,28.35-.39,42.31-2.59-1.73-5.37-2.94-8.55-2.88-4.96-.1-11.52.18-18.75.97,2.64-7.71,5.76-14.88,9.87-21.48ZM98.97,48.55c.3-4.61,1.2-9.97,2.28-14.1,1.83,1.32,4.2,3.21,6.11,4.95,12.61,10.99,20.38,25.04,26.98,40.61-10.35,2.51-20.32,6.19-27.59,11.37-5.77-13.63-8.79-28.09-7.78-42.84ZM289.26,254.26c-5.35,26.02-5.42,50.83-22.71,71.41-23.05,28.44-60.55,44.74-96.94,45.5-36.02.2-72.93-14.74-97.25-41.16-32.93-36-42.14-92.44-20.6-136.87,9.75-20.51,26.09-37.9,45.8-50.75,2.14,6.6,5.22,12.9,9.16,18.59,1.6,2.51,5.84.68,5.07-2.23-3.51-16.73-6.53-33.21-3.3-49.74.94-3.4,3.09-6.49,6.1-8.44,6.15-4.05,12.66-7.61,19.48-10.48,12.51-5.35,26.25-8.63,40-8.63,1.99-.04,3.77.51,5.28,1.82,21.25,16.87,43.79,53.21,19.27,74.42-5.89-.15-11.76.32-17.24.97-6.19.78-12.29,2.2-18.21,4.16-1.86-2.35-4-4.49-6.34-6.34-.88-.61-3.13-2.31-4.01-2.85-3.4-2.48-8.76-1.94-11.73.98-2.31,2.48-3.21,4.11-5.14,6.47-1.31,1.57-2.52,4.05-2.46,6.28.35,3.9,1.72,6.36,2.32,9.54-4.33,3.15-8.4,6.65-12.17,10.46-5.9-1.03-11.87-1.31-16.31-3.25-1.21-.48-2.64-.05-3.37,1.1-3.82,6.84,23.34,10.82,25.66,13.29,3.13,1.36,4.71,12.14.31,14.08-2.66,1.2-7.07,1.68-11.29,1.91-11.8,1.19-25.46.57-29.31-12.66-.42-1.28-1.73-2.11-3.11-1.87-1.51.26-2.53,1.7-2.26,3.21,1.54,10.71,8.81,16.44,17.64,19-.12.28-.21.57-.24.89-1.29,10.42,7.68,18.39,16.59,21.61,1.53,6.62,4.45,15.74,9.97,25.2-4.34,3.24-7.85,7.5-9.93,12.59-1.29,2.78,2.75,5.34,4.7,2.93,21.08-23.17,54.81-6.63,51.52,23.97-1.52,3.63,3.87,5.63,5.21,1.94,5.46-10.6,12.62-23.66,25.77-23.63.03.93-.17,2.21-.55,3.64-5.03,14.89-12.59,29.42-20.7,42.9-6.24,2.24-13.63,2.48-20.35,2.09-13.2-1.09-25.98-7.07-35.67-16.58-2.48-2.41-6.27,1.09-4.07,3.76,14.36,17.45,39.52,25.41,61.56,19.66,4.88-.74,7.16-6.1,9.53-9.8,3.94-6.5,7.5-13.26,10.68-20.17,3.86,1.98,9.12,3.38,10.97,3.73,10.68.96,14.36-11.38,16.11-19.68,19.71-26.12,21.17-63.46,5.21-91.41-12.17-33.49,11.7-67.34,48.01-68.5,34.45,1.16,57.13,29.84,56.62,62.58-25.55,6.98-48.11,27.93-53.26,54.4Z"/>
      <path class="cls-7" d="M166.41,124.54l11.07,6.39s.06.02.08.03c.56,2.9.78,6.01,1.04,8.82.95,3.53,6.32,2.1,5.4-1.43-.58-2.53-1.59-5.87-2.65-8.59,0,0,0-.01.01-.02l5.16-10.62c.42-.86.36-1.86-.14-2.67s-1.38-1.3-2.33-1.31c-2.39-.02-4.79.21-7.13.68-3.67.73-7.2,2.05-10.49,3.92-.86.49-1.4,1.41-1.4,2.4s.52,1.91,1.39,2.41ZM178.01,121.24c.48-.1.96-.18,1.45-.25l-1.77,3.65-3.87-2.23c1.37-.49,2.77-.88,4.2-1.17Z"/>
      <path class="cls-7" d="M176.78,109.08c2.98.33,2.01-3.66,3.53-4.97,1.98-2.37,4.79-.8,5.99,1.72.53,1.78,3.26,1.81,3.67-.07,1.08-4.88-3.57-9.9-8.85-9.07-5.29.82-8.27,6.99-5.82,11.39.3.52.84.91,1.48,1Z"/>
      <path class="cls-7" d="M146.46,118.37c1.25.14,2.27-.89,2.28-2.12.76-6.73,6.07-9.35,10.57-3.53,1.04,1.8,4.02,1.02,3.94-1.11.13-6.16-7.02-11.56-13.05-9.08-5.96,2.31-8.45,9.77-5.28,14.87.32.52.88.9,1.54.97Z"/>
    </g>
  </g>
</svg>