<?xml version="1.0" encoding="UTF-8"?>
<svg id="Layer_1" data-name="Layer 1" xmlns="http://www.w3.org/2000/svg" viewBox="0 0 1280 376.36">
  <defs>
    <style>
      .cls-1 {
        fill: #fbe3cd;
      }

      .cls-1, .cls-2, .cls-3, .cls-4, .cls-5, .cls-6, .cls-7, .cls-8, .cls-9 {
        stroke-width: 0px;
      }

      .cls-2 {
        fill: #2eb454;
      }

      .cls-3 {
        fill: #8c5a24;
      }

      .cls-4 {
        fill: #5b4019;
      }

      .cls-5 {
        fill: #875221;
      }

      .cls-6 {
        fill: #21894b;
      }

      .cls-7 {
        fill: #2f1d0f;
      }

      .cls-8 {
        fill: #fff;
      }

      .cls-9 {
        fill: #cc8b43;
      }
    </style>
  </defs>
  <path class="cls-7" d="M434.43,247.43c.65-1.96,2.62-2.29,4.26-1.31,12.76,7.53,26.5,13.41,37.63,13.41,6.87.66,11.45-3.27,11.45-8.18,0-16.69-71.66-11.45-71.66-72.97,0-35.01,29.78-58.57,74.28-58.57,21.27,0,46.79,7.53,64.13,18.65,1.64,1.31,2.62,2.95,1.97,4.58l-16.69,38.61c-.65,1.96-2.61,2.29-4.25,1.31-12.77-8.18-26.51-13.41-37.63-13.41-6.87-.66-11.45,2.62-11.45,7.85,0,17.34,71.66,11.13,71.66,73.3,0,35.01-28.8,58.57-72.32,58.57-21.27,0-47.77-7.53-66.1-18.65-1.64-1.64-2.61-3.27-1.96-5.24l16.69-37.96Z"/>
  <path class="cls-7" d="M758.39,214.38c0,56.94-38.61,94.9-96.2,94.9s-96.2-37.96-96.2-94.57,38.61-94.9,96.2-94.9,96.2,37.96,96.2,94.57ZM629.79,214.71c0,21.27,13.09,35.67,32.39,35.67s32.4-14.4,32.4-36-13.09-35.67-32.4-35.67-32.39,14.4-32.39,36Z"/>
  <path class="cls-7" d="M880.45,124.4c2.61,0,4.58,1.96,4.58,4.58v42.54c0,2.62-1.97,4.58-4.58,4.58h-8.51c-12.43,0-23.56,5.56-27.81,13.74v109.62c0,2.62-2.29,4.91-4.91,4.91h-57.59c-2.61,0-4.91-2.29-4.91-4.91v-170.15c0-2.29,2.29-4.58,4.91-4.58h36.98c2.62,0,4.26,2.29,5.24,4.91l4.91,14.4c9.82-12.11,25.85-19.63,43.19-19.63h8.51Z"/>
  <path class="cls-7" d="M1010.04,124.4c2.94,0,4.91,1.96,4.91,4.58l-3.6,31.74c-.32,2.62-2.29,4.91-4.91,4.91h-20.94v133.83c0,2.62-2.29,4.91-4.9,4.91h-57.59c-2.62,0-4.91-2.29-4.91-4.91v-133.83h-18.65c-2.29,0-4.58-1.96-4.58-4.58v-31.74c0-2.95,2.29-4.91,4.58-4.91h18.65v-35.67c0-2.29,2.29-4.25,4.91-4.58l57.59-5.56c2.61-.33,4.9,2.29,4.9,4.58v41.23h24.54Z"/>
  <path class="cls-7" d="M1027.39,86.76c.32-5.24,3.27-8.18,7.85-8.18h34.69c3.6,0,5.23,2.29,4.58,5.89l-14.4,43.85c-1.64,4.91-4.58,8.18-8.18,8.83l-21.92,4.58c-4.25.98-6.87,0-6.54-2.95l3.93-52.03Z"/>
  <path class="cls-7" d="M1275.09,67.13c2.62,0,4.91,2.29,4.91,4.58v227.75c0,2.62-2.29,4.91-4.91,4.91h-36.98c-2.29,0-3.93-1.96-5.23-4.91l-4.91-11.78c-12.44,13.09-33.38,21.6-55.3,21.6-51.7,0-86.39-37.96-86.39-94.9s34.69-94.57,86.39-94.57c15.38,0,30.1,4.58,39.92,12.43v-60.53c0-2.29,2.29-4.58,4.91-4.58h57.59ZM1212.59,194.09c-3.93-10.8-14.4-18-25.85-18-17.99,0-30.1,15.05-30.1,37.96s12.11,39.27,30.1,39.27c11.45,0,21.92-7.2,25.85-18v-41.23Z"/>
  <g>
    <path class="cls-2" d="M223.35,243.79c-1.73,9.67-4.91,17.35-6.68,21.19-2.29,4.95-4.69,8.93-6.64,11.89-.3,2.36-.92,5.46-2.29,8.86-1.51,3.76-3.4,6.68-4.98,8.67-.18.22-.37.44-.52.63-2.07.37-5.39.7-9.38-.07-4.21-.81-7.27-2.51-9.08-3.65-5.76.15-13.69-.22-22.85-2.55-5.32-1.33-13.18-3.91-21.67-8.93-18.38-10.89-27.65-26.17-30.97-32.3-2.84-5.32-6.31-13.07-8.38-23.14,3.43-2.99,6.83-5.76,10.15-8.27,3.29-2.51,6.5-4.84,9.56-6.94,3.91-2.73,7.6-5.13,11.04-7.2.89-.55,1.77-1.07,2.62-1.59,8.19-4.84,15.76-8.64,22.33-11.63,8.9-4.02,21.52-9.08,37.17-13.14,5.13-1.33,9.45-2.29,12.51-2.88,4.98,6.53,12.11,17.68,16.13,33,5.02,19.16,2.51,34.58,1.92,38.05Z"/>
    <path class="cls-5" d="M205.3,172.73c-8.19,1.55-18.86,4.02-31.04,8.16-20.56,7.05-35.58,15.5-42.63,19.78-1,.59-1.85,1.11-2.51,1.51-8.12,5.09-18.34,12.33-29.2,22.18-1.73-.48-4.39-1.44-7.2-3.36-1.22-.85-8.19-5.68-9.23-13.47-.55-3.99.66-7.27,1.85-9.93,8.38-19.12,25.84-32,28.53-33.96,3.58-2.58,6.94-4.69,9.74-6.31,3.73-2.18,6.5-3.51,7.49-3.99,18.42-8.67,34.44-9.49,40.38-9.6,3.06-.04,31.48-.3,35.4,10.3.48,1.25.74,3.03.81,3.58.96,6.64-1.03,12.14-2.4,15.1Z"/>
    <path class="cls-4" d="M129.12,202.19c-9.73,7.39-19.46,14.79-29.2,22.18-1.73-.48-4.39-1.44-7.2-3.36-1.22-.85-8.19-5.68-9.23-13.47-.55-3.99.66-7.27,1.85-9.93,8.79-19.78,28.53-33.96,28.53-33.96,5.31-3.83,13.36-8.93,24.15-13.31-1.01,4.32-2.5,13.37.57,24.07,2.48,8.65,6.87,14.63,9.64,17.86-6.37,3.31-12.75,6.61-19.12,9.92Z"/>
    <path class="cls-6" d="M167.72,290.17s-3.42-.59-6.79-1.43c-5.32-1.33-13.18-3.91-21.67-8.93-18.38-10.89-27.65-26.17-30.97-32.3-2.84-5.32-6.31-13.07-8.38-23.14,6.67-5.72,14.51-11.8,23.59-17.81,8.75-5.79,17.11-10.48,24.73-14.3,2.11,14.21,5.98,31.84,13.28,51.27,7.58,20.19,16.68,36.52,24.72,48.86-6.17-.74-12.34-1.49-18.51-2.23Z"/>
    <path class="cls-4" d="M143.1,148.21c-.88-1.68-2.28-3.87-4.51-5.97-4.42-4.17-9.41-5.42-11.75-5.84-1.5.86-3.58,2.28-5.58,4.5-2.23,2.47-3.48,4.94-4.17,6.62.79,2.08,1.56,4.68,2.01,7.72.24,1.66.35,3.21.37,4.6,3.42-2.15,7.3-4.36,11.64-6.49,4.24-2.08,8.28-3.77,11.99-5.14Z"/>
    <path class="cls-9" d="M284.69,210.18c-8.52,12.97-5.63,23.54-15.45,57.24-.48,1.66-6.43,21.93-11.7,33.24-18.03,38.73-73.49,70.01-122.44,64.45-32.23-3.66-88.55-40.34-88.55-40.34-31.04-31.34-39.49-74.04-36.8-104.82.66-7.64,2.66-28.2,14.8-50.27,2.29-4.1,7.82-13.58,17.2-23.95,9.04-9.93,17.57-16.24,21.78-19.19,1.29-.89,2.58-1.73,3.8-2.55,5.02-3.17,9.6-5.61,13.36-7.46-1.11-4.69-2.4-13.07-.22-23.03,1.51-6.75,4.06-12,6.2-15.54,8.08-5.54,21.33-13.18,39.2-17.27,12.88-2.99,24.14-3.21,32.41-2.69,4.28,2.84,10.34,7.35,16.72,13.77,8.01,8.05,15.95,16.02,19.56,28.72,1.55,5.46,4.5,15.95-.59,27.02-.85,1.77-6.24,12.99-17.27,16.35-5.68,1.73-8.19-.04-18.42,1.11-6.53.74-11.77,2.18-15.17,3.29-3.88-4.24-7.46-7.2-10.08-9.15-2.84-2.1-4.39-2.92-6.2-2.66-2.07.3-3.47,1.92-5.57,4.5-1.22,1.48-2.77,3.65-4.17,6.61.3,1.77.59,3.62.96,5.46.44,2.36.92,4.65,1.4,6.87-1.81,1.14-3.69,2.4-5.57,3.8-4.95,3.62-9.08,7.35-12.48,10.89,4.5,1.4,9.04,2.81,13.58,4.17.05.05.14.13.24.23,1.1,1.07,6.38,6.55,5.19,13.06-.83,4.55-4.39,7.24-5.55,8.04-3.88.96-8.58,1.81-13.95,2.15-6.69.42-12.51-.08-17.11-.81-.3,1.4-.59,3.44-.37,5.87.13,1.44.62,6.01,4.1,10.32,4.65,5.76,11.07,6.61,12.4,6.79.92,4.24,2.29,9.15,4.32,14.43,2.29,5.87,4.87,10.85,7.27,14.87,2.5-.93,6.38-2.09,11.2-2.32,9.8-.47,22.75,2.89,29.91,12.24,6.74,8.8,4.92,18.4,8.71,18.87,3.63.44,4.99-8.38,14.36-13.63,4.13-2.31,11.15-4.67,13.82-2,2.79,2.79.03,10.25-2.54,17.19-1.12,3.03-2.28,5.49-3.2,7.26,1.14.55,2.99,1.4,5.28,2.21,5.39,1.85,9.63,3.32,13.18,1.51,2.55-1.26,3.65-3.65,5.06-6.68,2.03-4.32,2.33-8.34,2.29-10.63,4.76-7.2,13.51-22.66,14.84-44.07.92-15.02-2.14-27.17-4.69-34.62-2.9-6.09-7.34-17.61-6.52-32.21.16-2.86,2.6-36.54,31.53-52.63,4.16-2.31,20.41-10.67,41-6.26,21.69,4.65,33.26,20.25,36.92,25.38,15.67,21.92,12.43,45.7,11.63,50.75-30.51,4.98-43.42,16.71-49.61,26.14Z"/>
    <path class="cls-9" d="M117.97,59.77c-3.6-12.98-8.56-22.79-12.45-29.33-7.46-12.54-13.22-16.8-16.07-18.67-4.22-2.76-8.21-4.27-11.05-5.12-1.42,2-3.34,5.07-4.81,9.13-3.08,8.48-2.16,15.54-.87,25.55,1.77,13.62,5.8,23.09,7.22,26.25,2.16,4.8,4.42,8.68,6.26,11.53,1.9-2.54,3.79-5.08,5.69-7.61,3.84-2.15,8.1-4.32,12.76-6.42,4.68-2.11,9.14-3.85,13.31-5.31Z"/>
    <path class="cls-9" d="M131.54,60.2c2.29-7.9,5.07-14.27,7.4-18.94,2.67-5.33,6.29-12.45,13.1-20.14,5.18-5.85,10.34-9.93,14.17-12.59,1.59,4.24,3.02,9.27,3.82,15.02,2.57,18.5-2.95,33.65-6.58,41.54-4.4-1.57-9.94-3.13-16.43-4.07-5.88-.85-11.13-.99-15.48-.82Z"/>
    <path class="cls-1" d="M168.96,16.6c-3.93,4.13-8.9,10.2-13.2,18.4-4.64,8.85-6.83,16.97-7.94,22.82,1.14-.42,4.77-1.57,9.11-.23,4.6,1.43,6.99,4.73,7.64,5.7,2.53-5.75,5.67-14.84,6.23-26.34.4-8.24-.65-15.21-1.84-20.35Z"/>
    <path class="cls-1" d="M86.85,8.48c-.35,5.88-.31,12.61.51,19.98,1.79,16.24,6.65,29.35,11.05,38.57,5.94-1.82,11.89-3.64,17.83-5.46-.29-9.69-2.69-17.06-4.52-21.49-3.86-9.37-9.86-15.82-16.25-22.89-3.45-3.82-6.51-6.77-8.62-8.72Z"/>
    <path class="cls-1" d="M163.53,98.2c-1.19,3.27-2.39,6.54-3.58,9.82-3.67-2.12-7.34-4.24-11.01-6.37,1.46-.94,3.75-2.17,6.77-2.92,3.25-.81,6.03-.72,7.83-.53Z"/>
    <g>
      <path class="cls-8" d="M185.68,240.88c-8.3,1.28-15.72,4.87-21.83,10.65-1.18,1.14-3.08,1.07-4.16-.17-2.26-3.26,2.07-7.14,4.05-9.57,5.64-5.72,14.45-8.56,22.29-6.54,2.97.72,2.64,5.3-.35,5.63h0Z"/>
      <path class="cls-8" d="M187.74,224.62c-14.33.74-27.65,6.03-37.73,16.23-2.25,2.4-6.22-.74-4.44-3.47,4.24-6.96,10.88-12.53,18.48-15.87,7.59-3.35,16.26-4.44,24.23-2.5,1.53.37,2.47,1.91,2.1,3.44-.3,1.26-1.4,2.12-2.63,2.17h0Z"/>
      <path class="cls-8" d="M190.73,208.34c-21.25-1.11-42.35,8.07-55.06,25.3-2.03,2.74-6.38-.01-4.76-3.01,8.35-15.92,25.09-26.97,42.91-29,3.93-.23,21.2-1.46,19.79,4.58-.34,1.32-1.56,2.19-2.86,2.13h0Z"/>
    </g>
    <path class="cls-3" d="M180.02,359.83c-48.59,12.77-99.84-.42-133.46-35.06C14.86,292.11,7.21,249.05,9.75,219.94c2.43-27.81,14.8-50.27,14.8-50.27,2.29-4.1,7.82-13.58,17.2-23.95,9.04-9.93,17.57-16.24,21.78-19.19,1.29-.89,2.58-1.73,3.8-2.55,1.77-.15,3.58-.26,5.43-.37-11.92,14.75-32.67,45.45-32.37,85.9.4,52.39,31.83,86.73,43.66,99.37,36.02,38.49,79.96,48.22,95.97,50.96Z"/>
    <g>
      <path class="cls-7" d="M302.84,102.72c-41.22-19.67-86.03,6.52-95.94,42.95-.05-.03-.09-.07-.14-.1-4.82-3.22-10.15-5.18-15.68-6.3,9.5-7.77,14.21-21.52,11.12-33.82-3.31-17.16-16.9-29.61-29.09-40.23-1.6-1.21-3.18-2.62-4.78-4.01,6.25-14.95,7.81-31.91,5.18-47.94-.05-.35-.41-2.12-.46-2.41-1.22-6.4-9.41-9.31-14.48-5.27-16.8,10.79-29.51,30.23-28.9,50.49-3.35.48-6.79,1.06-10.23,1.77-.45-18.74-10.76-36.61-24.35-49.3-2.51-2.29-4.73-4.17-7.82-6.41-7.91-5.4-18.36.07-19.15,9.59-4.51,21.88-.86,46.08,11.66,64.65-2.14,2.56-3.71,5.38-4.54,8.5-2.55,10.27-2.47,20.94-.2,31.11C8.91,145.58-17.28,225.2,11.73,291.38c44,101.64,183.98,114.02,249.47,26.9,8.63-11.48,14.53-25.29,17.58-39.11,5.09-19.77,2.59-39.38,13.85-55.63,10.51-14.52,28.31-20.14,45.77-21.99,4.84-.53,8.9-4.37,9.6-9.41,6.69-35.61-10.61-75.36-45.15-89.43ZM194.74,267.01c-1.8-6.01-9.28-6.25-13.61-4.75-7.68,1.76-13.43,6.68-17.79,12.81-1.68-11.4-9.13-22.22-19.97-26.84-9.77-4.75-21.49-3.94-30.89.96-5.18-8.91-7.94-17.51-9.4-23.78,14.56-12.19,30.37-22.85,47.47-31.09,16.74-8.78,35.16-13.57,53.16-18.64,5.39,10.43,9.77,21.09,12.22,32.09,5.33,22.48,1.82,46.47-10.3,66.17-2.77,4.62-1.52,10.48-4.19,15.26-.63,1.67-1.33,2.63-3.03,2.86-.67.06-3-.42-3.9-.47-1.72-.28-3.45-.71-5.16-1.25.46-1.08.91-2.16,1.35-3.24,2.26-6.22,5.83-12.89,4.05-20.08ZM186.3,269.87s-.01-.02,0-.06c0,.02,0,.04,0,.06ZM203.16,158.56c1.37,2.25.92,6.76-.08,11.6-19.43,2.49-38.41,8.47-56,17.08-17.58,8.7-33.93,20.05-47.86,33.85-7.08-2.77-13.72-7.95-12.93-16.08,0-.07,0-.14,0-.21,4.08.61,8.31.68,12.33.36,5.77-.24,14.22-.15,19.45-5.36,6.16-7.18,5.43-18.44-.37-25.56-2.06-1.85-4.4-3.13-6.88-4.07,6.9-4.96,14.26-9.23,21.91-12.52,9.69-4.12,20.19-6.64,30.72-7.72,13.1-.81,31.68-1.96,39.73,8.63ZM121.62,153.47c-.28-3.19-1.72-4.99-.48-6.28,1.05-1.21,2.72-3.27,3.73-4.53,1.31-1.54,1.71-2.62,3.38-2.22.24.01,1.49.94,1.8,1.11,2.18,1.28,4.34,2.78,6.4,4.37-5.14,2.14-10.1,4.71-14.82,7.66,0-.04,0-.07,0-.11ZM163.52,13.08s0,0,0,0c-.02-.09-.01-.06,0,0ZM145.64,33.48c4.66-7.56,10.82-14.16,18.13-19.25,3.25,14.17,2.94,28.85-.4,43.05-2.63-1.76-5.46-3-8.7-2.93-5.05-.1-11.73.18-19.08.99,2.69-7.84,5.86-15.15,10.04-21.85ZM78.25,26.99c.3-4.69,1.22-10.15,2.32-14.35,1.86,1.34,4.28,3.27,6.22,5.04,12.83,11.18,20.74,25.48,27.45,41.32-10.53,2.55-20.68,6.3-28.08,11.57-5.88-13.87-8.95-28.58-7.91-43.59ZM271.88,236.31c-5.45,26.48-5.52,51.72-23.11,72.66-23.45,28.93-61.61,45.52-98.64,46.3-36.66.21-74.21-15-98.95-41.88-33.51-36.63-42.88-94.06-20.96-139.27,9.92-20.87,26.55-38.57,46.6-51.64,2.18,6.72,5.31,13.12,9.32,18.92,1.63,2.56,5.95.7,5.16-2.27-3.57-17.02-6.64-33.79-3.36-50.61.96-3.46,3.14-6.6,6.21-8.59,6.26-4.12,12.88-7.74,19.82-10.67,12.73-5.45,26.72-8.79,40.7-8.79,2.03-.04,3.84.52,5.37,1.85,21.63,17.16,44.55,54.14,19.61,75.72-6-.16-11.97.33-17.54.99-6.3.8-12.51,2.24-18.53,4.24-1.89-2.39-4.07-4.57-6.45-6.45-.9-.62-3.18-2.35-4.08-2.91-3.46-2.52-8.92-1.98-11.94,1-2.36,2.52-3.27,4.19-5.23,6.59-1.33,1.6-2.57,4.12-2.51,6.39.35,3.96,1.75,6.47,2.36,9.71-4.41,3.21-8.55,6.77-12.38,10.65-6.01-1.05-12.08-1.33-16.6-3.31-1.24-.49-2.69-.05-3.43,1.12-3.89,6.96,23.75,11.01,26.11,13.52,3.18,1.38,4.79,12.36.31,14.32-2.71,1.22-7.2,1.71-11.49,1.94-12.01,1.21-25.91.58-29.83-12.89-.43-1.31-1.76-2.14-3.17-1.9-1.54.27-2.57,1.73-2.3,3.26,1.56,10.89,8.97,16.73,17.95,19.33-.12.28-.22.58-.24.91-1.31,10.61,7.82,18.71,16.88,21.99,1.55,6.73,4.53,16.02,10.15,25.64-4.41,3.3-7.99,7.63-10.11,12.81-1.31,2.83,2.8,5.44,4.79,2.98,21.45-23.57,55.77-6.75,52.43,24.39-1.54,3.7,3.94,5.73,5.3,1.97,5.55-10.79,12.84-24.07,26.22-24.05.03.95-.18,2.25-.56,3.7-5.12,15.15-12.81,29.94-21.07,43.65-6.35,2.27-13.86,2.52-20.7,2.13-13.43-1.11-26.44-7.19-36.3-16.87-2.52-2.45-6.38,1.11-4.14,3.83,14.61,17.76,40.21,25.86,62.64,20.01,4.96-.75,7.29-6.21,9.7-9.98,4.01-6.61,7.63-13.49,10.87-20.52,3.93,2.01,9.28,3.44,11.17,3.79,10.87.97,14.61-11.58,16.4-20.03,20.05-26.57,21.54-64.58,5.3-93.01-12.38-34.08,11.91-68.52,48.85-69.7,35.05,1.18,58.14,30.36,57.62,63.68-26,7.11-48.95,28.42-54.2,55.36Z"/>
      <path class="cls-7" d="M146.87,104.31l11.27,6.51s.06.02.09.04c.57,2.95.79,6.12,1.05,8.97.97,3.59,6.43,2.13,5.49-1.46-.59-2.57-1.61-5.97-2.7-8.74,0,0,0-.01.01-.02l5.25-10.81c.42-.87.37-1.9-.14-2.72s-1.41-1.32-2.37-1.33c-2.44-.02-4.88.21-7.26.69-3.73.75-7.33,2.09-10.68,3.99-.88.5-1.42,1.43-1.43,2.44s.53,1.95,1.41,2.45ZM158.67,100.96c.49-.1.98-.18,1.47-.26l-1.8,3.71-3.94-2.27c1.39-.5,2.82-.9,4.27-1.19Z"/>
      <path class="cls-7" d="M157.42,88.59c3.04.33,2.05-3.73,3.59-5.05,2.02-2.41,4.87-.81,6.1,1.75.54,1.82,3.31,1.85,3.73-.07,1.1-4.96-3.63-10.07-9.01-9.23-5.39.84-8.41,7.11-5.92,11.59.31.53.85.93,1.5,1.02Z"/>
      <path class="cls-7" d="M126.57,98.04c1.27.14,2.31-.9,2.32-2.15.78-6.85,6.18-9.51,10.76-3.59,1.05,1.83,4.09,1.04,4.01-1.13.13-6.27-7.14-11.76-13.28-9.24-6.07,2.35-8.6,9.94-5.37,15.13.33.53.9.91,1.56.98Z"/>
    </g>
  </g>
</svg>