<?xml version="1.0" encoding="UTF-8"?>
<svg id="Layer_1" data-name="Layer 1" xmlns="http://www.w3.org/2000/svg" viewBox="0 0 1280 376.21">
  <defs>
    <style>
      .cls-1 {
        fill: #000;
        stroke-width: 0px;
      }
    </style>
  </defs>
  <path class="cls-1" d="M434.43,247.43c.65-1.96,2.62-2.29,4.26-1.31,12.76,7.53,26.5,13.41,37.63,13.41,6.87.66,11.45-3.27,11.45-8.18,0-16.69-71.66-11.45-71.66-72.97,0-35.01,29.78-58.57,74.28-58.57,21.27,0,46.79,7.53,64.13,18.65,1.64,1.31,2.62,2.95,1.97,4.58l-16.69,38.61c-.65,1.96-2.61,2.29-4.25,1.31-12.77-8.18-26.51-13.41-37.63-13.41-6.87-.66-11.45,2.62-11.45,7.85,0,17.34,71.66,11.13,71.66,73.3,0,35.01-28.8,58.57-72.32,58.57-21.27,0-47.77-7.53-66.1-18.65-1.64-1.64-2.61-3.27-1.96-5.24l16.69-37.96Z"/>
  <path class="cls-1" d="M758.39,214.38c0,56.94-38.61,94.9-96.2,94.9s-96.2-37.96-96.2-94.57,38.61-94.9,96.2-94.9,96.2,37.96,96.2,94.57ZM629.79,214.71c0,21.27,13.09,35.67,32.39,35.67s32.4-14.4,32.4-36-13.09-35.67-32.4-35.67-32.39,14.4-32.39,36Z"/>
  <path class="cls-1" d="M880.45,124.4c2.61,0,4.58,1.96,4.58,4.58v42.54c0,2.62-1.97,4.58-4.58,4.58h-8.51c-12.43,0-23.56,5.56-27.81,13.74v109.62c0,2.62-2.29,4.91-4.91,4.91h-57.59c-2.61,0-4.91-2.29-4.91-4.91v-170.15c0-2.29,2.29-4.58,4.91-4.58h36.98c2.62,0,4.26,2.29,5.24,4.91l4.91,14.4c9.82-12.11,25.85-19.63,43.19-19.63h8.51Z"/>
  <path class="cls-1" d="M1010.04,124.4c2.94,0,4.91,1.96,4.91,4.58l-3.6,31.74c-.32,2.62-2.29,4.91-4.91,4.91h-20.94v133.83c0,2.62-2.29,4.91-4.9,4.91h-57.59c-2.62,0-4.91-2.29-4.91-4.91v-133.83h-18.65c-2.29,0-4.58-1.96-4.58-4.58v-31.74c0-2.95,2.29-4.91,4.58-4.91h18.65v-35.67c0-2.29,2.29-4.25,4.91-4.58l57.59-5.56c2.61-.33,4.9,2.29,4.9,4.58v41.23h24.54Z"/>
  <path class="cls-1" d="M1027.39,86.76c.32-5.24,3.27-8.18,7.85-8.18h34.69c3.6,0,5.23,2.29,4.58,5.89l-14.4,43.85c-1.64,4.91-4.58,8.18-8.18,8.83l-21.92,4.58c-4.25.98-6.87,0-6.54-2.95l3.93-52.03Z"/>
  <path class="cls-1" d="M1275.09,67.13c2.62,0,4.91,2.29,4.91,4.58v227.75c0,2.62-2.29,4.91-4.91,4.91h-36.98c-2.29,0-3.93-1.96-5.23-4.91l-4.91-11.78c-12.44,13.09-33.38,21.6-55.3,21.6-51.7,0-86.39-37.96-86.39-94.9s34.69-94.57,86.39-94.57c15.38,0,30.1,4.58,39.92,12.43v-60.53c0-2.29,2.29-4.58,4.91-4.58h57.59ZM1212.59,194.09c-3.93-10.8-14.4-18-25.85-18-17.99,0-30.1,15.05-30.1,37.96s12.11,39.27,30.1,39.27c11.45,0,21.92-7.2,25.85-18v-41.23Z"/>
  <g>
    <g>
      <path class="cls-1" d="M185.68,240.88c-8.3,1.28-15.72,4.87-21.83,10.65-1.18,1.14-3.08,1.07-4.16-.17-2.26-3.26,2.07-7.14,4.05-9.57,5.64-5.72,14.45-8.56,22.29-6.54,2.97.72,2.64,5.3-.35,5.63h0Z"/>
      <path class="cls-1" d="M187.74,224.62c-14.33.74-27.65,6.03-37.73,16.23-2.25,2.4-6.22-.74-4.44-3.47,4.24-6.96,10.88-12.53,18.48-15.87,7.59-3.35,16.26-4.44,24.23-2.5,1.53.37,2.47,1.91,2.1,3.44-.3,1.26-1.4,2.12-2.63,2.17h0Z"/>
      <path class="cls-1" d="M190.73,208.34c-21.25-1.11-42.35,8.07-55.06,25.3-2.03,2.74-6.38-.01-4.76-3.01,8.35-15.92,25.09-26.97,42.91-29,3.93-.23,21.2-1.46,19.79,4.58-.34,1.32-1.56,2.19-2.86,2.13h0Z"/>
    </g>
    <g>
      <path class="cls-1" d="M302.84,102.72c-41.22-19.67-86.03,6.52-95.94,42.95-.05-.03-.09-.07-.14-.1-4.82-3.22-10.15-5.18-15.68-6.3,9.5-7.77,14.21-21.52,11.12-33.82-3.31-17.16-16.9-29.61-29.09-40.23-1.6-1.21-3.18-2.62-4.78-4.01,6.25-14.95,7.81-31.91,5.18-47.94-.05-.35-.41-2.12-.46-2.41-1.22-6.4-9.41-9.31-14.48-5.27-16.8,10.79-29.51,30.23-28.9,50.49-3.35.48-6.79,1.06-10.23,1.77-.45-18.74-10.76-36.61-24.35-49.3-2.51-2.29-4.73-4.17-7.82-6.41-7.91-5.4-18.36.07-19.15,9.59-4.51,21.88-.86,46.08,11.66,64.65-2.14,2.56-3.71,5.38-4.54,8.5-2.55,10.27-2.47,20.94-.2,31.11C8.91,145.58-17.28,225.2,11.73,291.38c44,101.64,183.98,114.02,249.47,26.9,8.63-11.48,14.53-25.29,17.58-39.11,5.09-19.77,2.59-39.38,13.85-55.63,10.51-14.52,28.31-20.14,45.77-21.99,4.84-.53,8.9-4.37,9.6-9.41,6.69-35.61-10.61-75.36-45.15-89.43ZM194.74,267.01c-1.8-6.01-9.28-6.25-13.61-4.75-7.68,1.76-13.43,6.68-17.79,12.81-1.68-11.4-9.13-22.22-19.97-26.84-9.77-4.75-21.49-3.94-30.89.96-5.18-8.91-7.94-17.51-9.4-23.78,14.56-12.19,30.37-22.85,47.47-31.09,16.74-8.78,35.16-13.57,53.16-18.64,5.39,10.43,9.77,21.09,12.22,32.09,5.33,22.48,1.82,46.47-10.3,66.17-2.77,4.62-1.52,10.48-4.19,15.26-.63,1.67-1.33,2.63-3.03,2.86-.67.06-3-.42-3.9-.47-1.72-.28-3.45-.71-5.16-1.25.46-1.08.91-2.16,1.35-3.24,2.26-6.22,5.83-12.89,4.05-20.08ZM186.29,269.87s-.01-.02,0-.06c0,.02,0,.04,0,.06ZM203.16,158.56c1.37,2.25.92,6.76-.08,11.6-19.43,2.49-38.41,8.47-56,17.08-17.58,8.7-33.93,20.05-47.86,33.85-7.08-2.77-13.72-7.95-12.93-16.08,0-.07,0-.14,0-.21,4.08.61,8.31.68,12.33.36,5.77-.24,14.22-.15,19.45-5.36,6.16-7.18,5.43-18.44-.37-25.56-2.06-1.85-4.4-3.13-6.88-4.07,6.9-4.96,14.26-9.23,21.91-12.52,9.69-4.12,20.19-6.64,30.72-7.72,13.1-.81,31.68-1.96,39.73,8.63ZM121.62,153.47c-.28-3.19-1.72-4.99-.48-6.28,1.05-1.21,2.72-3.27,3.73-4.53,1.31-1.54,1.71-2.62,3.38-2.22.24.01,1.49.94,1.8,1.11,2.18,1.28,4.34,2.78,6.4,4.37-5.14,2.14-10.1,4.71-14.82,7.66,0-.04,0-.07,0-.11ZM163.51,13.08s0,0,0,0c-.02-.09-.01-.06,0,0ZM145.64,33.48c4.66-7.56,10.82-14.16,18.13-19.25,3.25,14.17,2.94,28.85-.4,43.05-2.63-1.76-5.46-3-8.7-2.93-5.05-.1-11.73.18-19.08.99,2.69-7.84,5.86-15.15,10.04-21.85ZM78.25,26.99c.3-4.69,1.22-10.15,2.32-14.35,1.86,1.34,4.28,3.27,6.22,5.04,12.83,11.18,20.74,25.48,27.45,41.32-10.53,2.55-20.68,6.3-28.08,11.57-5.88-13.87-8.95-28.58-7.91-43.59ZM271.88,236.31c-5.45,26.48-5.52,51.72-23.11,72.66-23.45,28.93-61.61,45.52-98.64,46.3-36.66.21-74.21-15-98.95-41.88-33.51-36.63-42.88-94.06-20.96-139.27,9.92-20.87,26.55-38.57,46.6-51.64,2.18,6.72,5.31,13.12,9.32,18.92,1.63,2.56,5.95.7,5.16-2.27-3.57-17.02-6.64-33.79-3.36-50.61.96-3.46,3.14-6.6,6.21-8.59,6.26-4.12,12.88-7.74,19.82-10.67,12.73-5.45,26.72-8.79,40.7-8.79,2.03-.04,3.84.52,5.37,1.85,21.63,17.16,44.55,54.14,19.61,75.72-6-.16-11.97.33-17.54.99-6.3.8-12.51,2.24-18.53,4.24-1.89-2.39-4.07-4.57-6.45-6.45-.9-.62-3.18-2.35-4.08-2.91-3.46-2.52-8.92-1.98-11.94,1-2.36,2.52-3.27,4.19-5.23,6.59-1.33,1.6-2.57,4.12-2.51,6.39.35,3.96,1.75,6.47,2.36,9.71-4.41,3.21-8.55,6.77-12.38,10.65-6.01-1.05-12.08-1.33-16.6-3.31-1.24-.49-2.69-.05-3.43,1.12-3.89,6.96,23.75,11.01,26.11,13.52,3.18,1.38,4.79,12.36.31,14.32-2.71,1.22-7.2,1.71-11.49,1.94-12.01,1.21-25.91.58-29.83-12.89-.43-1.31-1.76-2.14-3.17-1.9-1.54.27-2.57,1.73-2.3,3.26,1.56,10.89,8.97,16.73,17.95,19.33-.12.28-.22.58-.24.91-1.31,10.61,7.82,18.71,16.88,21.99,1.55,6.73,4.53,16.02,10.15,25.64-4.41,3.3-7.99,7.63-10.11,12.81-1.31,2.83,2.8,5.44,4.79,2.98,21.45-23.57,55.77-6.75,52.43,24.39-1.54,3.7,3.94,5.73,5.3,1.97,5.55-10.79,12.84-24.07,26.22-24.05.03.95-.18,2.25-.56,3.7-5.12,15.15-12.81,29.94-21.07,43.65-6.35,2.27-13.86,2.52-20.7,2.13-13.43-1.11-26.44-7.19-36.3-16.87-2.52-2.45-6.38,1.11-4.14,3.83,14.61,17.76,40.21,25.86,62.64,20.01,4.96-.75,7.29-6.21,9.7-9.98,4.01-6.61,7.63-13.49,10.87-20.52,3.93,2.01,9.28,3.44,11.17,3.79,10.87.97,14.61-11.58,16.4-20.03,20.05-26.57,21.54-64.58,5.3-93.01-12.38-34.08,11.91-68.52,48.85-69.7,35.05,1.18,58.14,30.36,57.62,63.68-26,7.11-48.95,28.42-54.2,55.36Z"/>
      <path class="cls-1" d="M146.87,104.31l11.27,6.51s.06.02.09.04c.57,2.95.79,6.12,1.05,8.97.97,3.59,6.43,2.13,5.49-1.46-.59-2.57-1.61-5.97-2.7-8.74,0,0,0-.01.01-.02l5.25-10.81c.42-.87.37-1.9-.14-2.72s-1.41-1.32-2.37-1.33c-2.44-.02-4.88.21-7.26.69-3.73.75-7.33,2.09-10.68,3.99-.88.5-1.42,1.43-1.43,2.44s.53,1.95,1.41,2.45ZM158.67,100.96c.49-.1.98-.18,1.47-.26l-1.8,3.71-3.94-2.27c1.39-.5,2.82-.9,4.27-1.19Z"/>
      <path class="cls-1" d="M157.42,88.59c3.04.33,2.05-3.73,3.59-5.05,2.02-2.41,4.87-.81,6.1,1.75.54,1.82,3.31,1.85,3.73-.07,1.1-4.96-3.63-10.07-9.01-9.23-5.39.84-8.41,7.11-5.92,11.59.31.53.85.93,1.5,1.02Z"/>
      <path class="cls-1" d="M126.57,98.04c1.27.14,2.31-.9,2.32-2.15.78-6.85,6.18-9.51,10.76-3.59,1.05,1.83,4.09,1.04,4.01-1.13.13-6.27-7.14-11.76-13.28-9.24-6.07,2.35-8.6,9.94-5.37,15.13.33.53.9.91,1.56.98Z"/>
    </g>
  </g>
</svg>