<svg id="Layer_1" data-name="Layer 1" xmlns="http://www.w3.org/2000/svg" viewBox="0 0 1280 183.17"><defs><style>.cls-1{fill:#444;}</style></defs><path class="cls-1" d="M104.22,21.73C74.93,7.14,38.87,18.65,19,43.54-2.33,70.36-5.64,111.26,8.76,142.15c18.64,40,74.37,28.73,102.17,6.33,7.74-6.24-.62-19.25-9.55-16.4-20.91,6.68-47,27.09-68.49,9.36-8.68-7.16-11.63-21.16-12.71-31.81A82.52,82.52,0,0,1,24.31,73c7.74-21.38,28.23-38.33,51.46-38.69C96.41,34,113.74,48.8,120,68c3.43,10.63,3.82,22.71-1.33,32.9a22.66,22.66,0,0,1-5.61,7.47,10.55,10.55,0,0,1-2.49,1.67c-.78.27-1,.56-1,.73a4.77,4.77,0,0,0-1-1.17c-5-4.86-6.65-15.3-7-21.85a8.78,8.78,0,0,0-8.74-8.62,17.24,17.24,0,0,0-3.38-7.42c-5.33-7-14-9.66-22.52-8.12C48.78,66.91,38,87,36.8,104.09,35.53,122.58,51.38,133.35,68.62,130c9.66-1.89,16.47-7.84,21.56-15.38,4.11,8.56,10.47,15.13,19.79,14.37,16.48-1.34,27.32-19.1,30.09-33.79C145.47,66.53,130.59,34.87,104.22,21.73ZM70.41,110.8c-4.88,3.62-15.17,5.08-17.92-1.83-3.33-8.42,3.41-23.39,9.88-28.85,3.85-3.24,9.88-5.59,14.69-3C80.57,79,83,83.58,83.45,87.62,80.77,96,77.6,105.49,70.41,110.8Zm39.07,0c.09.21,0,.17,0,0Z"/><path class="cls-1" d="M109.48,110.8c.09.21,0,.17,0,0Z"/><path class="cls-1" d="M239.62,158.39c-1.73-23-3.44-46-6.93-68.82-3.26-21.4-7.51-45-17.59-64.41-4.52-8.7-12.87-15.1-23-13.92C182.29,12.36,175,20,170.2,28.12c-11.06,18.65-14.85,40.79-16.68,62.08-1.08,12.42-1.39,24.87-1.57,37.33-.18,13.13-2.21,28.33,2.4,40.87,1.54,4.2,8.61,6.57,10.86,1.42,5.08-11.62,4.63-24.91,5.45-37.37.25-3.82.48-7.64.72-11.47,14.63-.52,30.5-2.12,44-7.78,1.66,15,2.65,30.13,3.6,45.19C219.82,171.62,240.62,171.63,239.62,158.39ZM192.36,96.05q-9.63-.18-19.29-.08c0-.1,0-.21,0-.31a183.27,183.27,0,0,1,5.54-33.75c2.51-9.18,6-21.82,13.27-28.48,2.6-2.41,2.58-2.47,4.61.58,2.86,4.29,4.22,9.91,5.79,14.74a277.64,277.64,0,0,1,9,35.94c.73,3.92,1.36,7.84,1.95,11.78C206.22,95.71,199.49,96.16,192.36,96.05Z"/><path class="cls-1" d="M320.51,47.51c-4.61-20.45-20.09-38.41-42-39.6-10-.54-20.53,3.41-27.11,11.14-3.41,4-5.87,10.09-4.89,15.41.56,3.1,2.41,6.44,4.09,9.42-1,15.85-.31,32.12,0,47.72.44,20.85,2.26,41.72,4.57,62.43a10.42,10.42,0,0,0-3.21,5.76c-.59,3.41-.34,7.77,2.68,10.15l.52.4c4.3,3.38,9.26,4.57,14.28,1.84,9.92-5.37,16.22-17.11,22.14-26.31A292.44,292.44,0,0,0,309,114.53C319.06,93.69,325.71,70.64,320.51,47.51Zm-19,18.61c-.42,18.14-9.14,34.95-18.41,50.1q-4.86,7.95-10.19,15.6c-1.25-13-2.33-26-3.39-39-.85-10.18-1.5-20.37-2.07-30.58-.55-10-.45-20.46-1.65-30.44.17-.14.34-.28.51-.4,4.64-3.51,10.77-3.92,16.16-2.12C297.32,34.23,301.88,52.22,301.55,66.12Z"/><path class="cls-1" d="M405.19,156.2c-1.75-10.87-4.44-21.41-5.59-32.41-1.13-10.74-1.86-21.51-2.7-32.26C396,80.26,395,69,393.23,57.84c-1.56-10.19-3.29-21.17-7.57-30.64S371.58,12.05,361.2,15.28c-9.9,3.08-16.17,12.31-20.53,21.14C331,56.05,325.78,78,322.79,99.54a250.76,250.76,0,0,0-2.69,38.52c.11,8-1.49,28.27,9.89,29.32a3.16,3.16,0,0,0,1.74-.3.32.32,0,0,0,.15-.06c9-3,6.5-23.12,6.94-30.17.42-6.78,1-13.57,1.77-20.33,5.18-.44,10.58-2.55,15.47-4,7.36-2.16,14.65-4.76,21.21-8.64.5,7,1,14,1.73,21,1.24,12.11,2.09,25.26,6,36.83C389.44,174.7,407.32,169.35,405.19,156.2ZM352.3,94.41c-2.54.56-5.52.94-8.53,1.45a287.09,287.09,0,0,1,7.67-31.08c2.83-9.07,6.11-20.94,13-27.76.48-.48,1.7-1.23,2.28-1.74-.79-1.1-.71-1.29.19-.54.25.06.11.28-.19.54.12.17.26.37.44.6.34.9.64,1.8.9,2.73a154.87,154.87,0,0,1,3.79,15.64,315.44,315.44,0,0,1,4.41,36.12l0,.57C368.23,91.08,360.25,92.65,352.3,94.41Z"/><path class="cls-1" d="M366.74,35.28c-.79-1.1-.71-1.29.19-.54C367.18,34.8,367,35,366.74,35.28Z"/><path class="cls-1" d="M491.08,164.82c-1.82-39-4.58-77.94-8.69-116.74-.23-2.1-.39-4.21-.59-6.34-1.44,3.77-2.63,7.68-3.89,11.51-6.26,18.78-12.76,37.49-19.17,56.22-3.31,9.64-19.36,11.65-21.65,0-2.53-13-5-25.92-7.6-38.85-.05-.27-.12-.54-.17-.81q-1.06,13.77-1.75,27.55c-.61,12.26-.91,24.53-1.45,36.79-.25,5.76-.63,11.45-1.14,17.18-.57,6.4-.64,10.54-5,15.51a4.62,4.62,0,0,1-6.51,0c-7.12-7.3-6.33-20.51-6.78-30.24-.53-11.44-.4-22.89-.09-34.33.57-21.1.39-43.35,4.17-64.16,1.57-8.59,6.06-17.57,15-20.34a13.17,13.17,0,0,1,14.08,4c3.37,3.91,3.79,9.07,4.78,13.94q2.73,13.47,5.54,26.92c3-9.14,6.09-18.25,9.46-27.24,3.55-9.46,8.63-22,19.16-25.52,11-3.63,19.56,4.46,22.95,14.23,3.51,10,3.32,22,4.36,32.54q1.8,18.39,3.38,36.8,3.06,35.65,4.94,71.37C515.25,179.85,491.77,179.8,491.08,164.82Z"/><path class="cls-1" d="M542.39,73c0,.32,0,.64,0,1-.11-.27-.24-.56-.35-.84C542.16,73.11,542.27,73.06,542.39,73Z"/><path class="cls-1" d="M593.24,73.86a37.76,37.76,0,0,0-11.09-5c.73-1,1.43-1.93,2.12-2.91,8.26-11.75,17.53-29.17,10.18-43.42-7.58-14.65-26.69-15.41-40.71-11.45-12.94,3.66-31.24,13.7-30.87,29.1a7.73,7.73,0,0,0,1.53,4.46c-1.45,7.93-1.33,16.69-1.7,24.13-.59,11.9-.7,23.83-.67,35.74,0,11.49.27,23,.89,34.47.2,3.58.42,7.18.67,10.76a25.55,25.55,0,0,0-4.24,2.71c-7.51,6-2,16.37,5,19.16a18.83,18.83,0,0,0,7.86,1.19c3.48,1.4,6.69.54,9.67-1.78,2.74-.81,5.4-1.79,7.79-2.69a107.7,107.7,0,0,0,22.17-11.24c13.54-9.14,26.76-21.6,33.5-36.73C612.93,103.45,609.3,84.35,593.24,73.86ZM542,73.14c.13,0,.24-.08.36-.12,0,.32,0,.64,0,1C542.27,73.71,542.14,73.42,542,73.14ZM556.13,34a31.47,31.47,0,0,1,13.61-2.07c3.08.29,4.75,0,4.41,2.71C573.1,42.78,566.8,51,561.48,57a75.92,75.92,0,0,1-19.09,15.58V71.28c0-5.75,0-11.5,0-17.24,0-3.77.32-7.63,0-11.4C546.74,39.52,550.9,35.9,556.13,34Zm22.66,83.52c-6.68,8.83-16,16-25.63,21.21a74.63,74.63,0,0,1-8.27,3.87c-.13-1.6-.24-3.19-.34-4.8-.73-11.08-1.37-22.15-1.73-33.24-.08-2.37-.15-4.72-.2-7.09a11,11,0,0,0,6-.35c9.44-3.09,23-8.7,32.06-1.78C588.37,101.19,583.53,111.26,578.79,117.51Z"/><path class="cls-1" d="M542.39,73c0,.32,0,.64,0,1-.11-.27-.24-.56-.35-.84C542.16,73.11,542.27,73.06,542.39,73Z"/><path class="cls-1" d="M640.78,162.31c-.45-1.69-.92-3.39-1.37-5.08l.57,1.2a9.83,9.83,0,0,1,.65,1.94Z"/><path class="cls-1" d="M692.54,23.37c-8.49,5.91-20.08,7.84-30.1,9.69-7.46,1.38-15,2.39-22.5,3.21q-.15,18.56-.16,37.12c12.4-2.22,27.39-5,38.52-.08,3.75,1.66,3.62,6.93,1.23,9.51-4.22,4.55-10.89,6.73-16.6,8.82a203.27,203.27,0,0,1-21.58,6.25,11.84,11.84,0,0,1-1.52.27c0,20.63-.76,41.68.8,62.21a9.83,9.83,0,0,0-.65-1.94l-.57-1.2c.45,1.69.92,3.39,1.37,5.08l-.15-1.94c1.7,7.65-6,17.16-14,11.37-5.93-4.29-6.26-8.93-6.42-15.86-.12-5.78-.25-11.55-.35-17.33q-.32-18.57-.48-37.14-.3-37.15.31-74.3c.08-5.87,4.6-9.69,10.15-10.15,10.41-.85,20.79-2.09,31.17-3.23,9.88-1.07,20.23-3.08,30.09-1.2C696.55,13.57,696.34,20.73,692.54,23.37Z"/><path class="cls-1" d="M833.31,156.44c-5.56-1.93-12.31-1.34-18.12-1.67-6.8-.37-13.62-.32-20.42-.23-12.85.16-26.37-.48-38.37,4.69-10.65,4.61-2.8,20.4,7.6,18.05,11.55-2.62,22.55-3.7,34.38-4.6,5.94-.46,11.89-1,17.8-1.78,3.26-.44,6.57-.7,9.82-1.24,2-.32,4.26-1.3,6.25-1l-.08-.06a10.62,10.62,0,0,0,1.55-.14c2.42-.34,4.06-3.15,4.11-5.38,0-.22,0-.44,0-.65A6.32,6.32,0,0,0,833.31,156.44ZM827,165c0-.16-.07-.31-.1-.46l.39.3Z"/><path class="cls-1" d="M887.82,2a32.65,32.65,0,0,0-28.34,2.86,30.15,30.15,0,0,0-8.26,7.37,8.58,8.58,0,0,0-8.67,8.66c-1,21.84-.49,43.68.28,65.51s.64,44.24,3.93,65.78a8.34,8.34,0,0,0,6.06,7.15q-1.7,2.16-3.43,4.28c-3.65,4.42-4.33,10.68,0,15,3.74,3.75,11.34,4.45,15,0a239,239,0,0,0,35.59-58c8.86-20.79,16.5-43.69,17.33-66.45C918.08,32.91,908.9,10.05,887.82,2Zm5.52,70.22a214.14,214.14,0,0,1-26,65.92c-.61-17.64-2.74-35.42-3.63-53-1-19.3-1.64-38.62-2.83-57.91,3.42-2.37,6.39-5.2,11-5.89a17.51,17.51,0,0,1,14.88,4.88C899,38.06,896.53,57.18,893.34,72.22Z"/><path class="cls-1" d="M827.25,164.83,827,165c0-.16-.07-.31-.1-.46Z"/><path class="cls-1" d="M977.45,157.64c-4.48,6.68-13.25,9.62-20.66,11.85-7.92,2.38-17.14,4.85-25.45,4.44a8.75,8.75,0,0,1-7-3.89,9.87,9.87,0,0,1-7.89-7.24c-1.7-6.42-.94-13.36-.8-20s.35-13.09.58-19.63q.68-19,1.84-38c.79-12.69,1.91-25.31,3.33-37.95q1.11-9.81,2.59-19.59c.89-5.95,1-12.75,5.84-16.89a6.64,6.64,0,0,1,8.85-.37C944.44,9,950.18,7.72,956,6.8A31,31,0,0,1,977,10.41c3.88,2.1,3.84,8.15,0,10.27-5.76,3.15-12.1,2.89-18.3,4.48-5.44,1.39-10.82,3.28-16.21,5v.05q-.5,9.78-1.08,19.55-.9,15.42-1.71,30.82c2-.26,3.91-.53,5.87-.7,2.66-.22,5.29.09,7.94-.07,8.7-.53,9.63,12.16,2,14.57-2.57.81-5,2.06-7.58,2.81s-5.2,1.3-7.8,1.94a7.69,7.69,0,0,1-1.33.22q-.53,12-.79,23.91c-.15,6.54-.21,13.08-.26,19.63,0,4,.21,8,0,12,4.78-.79,9.63-1.41,14.33-2.56,7-1.71,14.67-4.7,21.88-3.32C977.54,149.68,979.45,154.65,977.45,157.64Z"/><path class="cls-1" d="M1158.27,172.74c-10.26,3.47-21.3-.45-28.86-7.79-8.07-7.82-11.89-19.41-15-29.94A168.39,168.39,0,0,1,1109,67.52c2.49-20.25,7-47,25-59.61,8.81-6.23,21-8,30.58-2.33,8.38,5,14.07,15.6,10.09,25.12s-16.56,8-17.63-2.38c-.72-6.95-8.25-5.9-12.27-2.68-6.27,5-8.68,14.1-10.81,21.45a148.24,148.24,0,0,0-4.8,57.57,143.75,143.75,0,0,0,6.57,29.19c2,6.21,5.09,17.22,12.62,18.87,6.92,1.52,9.7-9.08,11-13.9a76.28,76.28,0,0,0,2.43-19.26.27.27,0,0,0-.12,0c-13.51,4-19.28-17.22-5.8-21a69.65,69.65,0,0,1,15.72-2.43c4.36-.22,9.75,3.52,10.47,8C1185.42,126,1184,164.08,1158.27,172.74Z"/><path class="cls-1" d="M1058.56,114.18c3.61,19.19-3.15,38.39-19.71,49.36-13.62,9-40.82,13.77-50.52-3.24a10.36,10.36,0,0,1,8.86-15.43c9.12-.18,15.53,4,24.41.36a21.9,21.9,0,0,0,13.6-17.55c.87-6.9-1.37-14.27-5.25-19.94-5.21-7.62-13.82-10.94-21.67-15.16C989.54,82.5,974.36,63.13,975.8,40.86,977,21.69,993,3.15,1012.5,1.56c16.26-1.33,37.21,10.52,36.62,28.77-.2,6.41-9.63,9.88-12.81,3.47-3.78-7.6-9-14.25-18.19-14.76-8.27-.48-15.6,6.12-18.3,13.53A27.92,27.92,0,0,0,1001.68,55c4.72,8.52,12.31,13.27,20.75,17.59C1040,81.61,1054.72,93.74,1058.56,114.18Z"/><path class="cls-1" d="M1092.62,82.82c1.57,24.73,1.05,49.38,1,74.13,0,15.08-24.22,14.83-23.24,0,1.6-24.2.93-48.67.2-72.89-.35-11.93-.88-23.84-1.34-35.76-.43-10.79-3.38-25,1.75-34.91,1.66-3.18,6.76-3.94,9.16-1.18,7.45,8.58,7.46,22.79,8.9,33.62C1090.69,58.12,1091.83,70.45,1092.62,82.82Z"/><path class="cls-1" d="M1279.85,158.72c-.94,10.32-15.77,13.43-18.73,2.53-.39-1.43-.73-2.88-1-4.36a11.22,11.22,0,0,1-5.83-4.56c-13.08-19.42-22.26-40.87-30.08-62.86-2-5.73-4.07-11.47-6.14-17.2,0,6.06.07,12.13.14,18.19q.46,36.18,2.13,72.33c.61,13.51-20.27,13.41-21,0q-1.84-36.16-2.17-72.33c-.09-11.64-.19-23.3.35-34.93.45-9.51-.17-20.16,2.91-29.39-.33-1-.6-2-.83-3-2.5-11.2,11.11-15.67,17.46-7.35,3.53,4.63,5.68,10.8,8,16.15,2.39,5.61,4.63,11.28,6.84,17,4.08,10.59,7.89,21.3,12,31.88,4.3,11,8.77,22,14,32.67q-.39-15.41-.12-30.81c.22-13.08.81-26.29,2.23-39.3.7-6.44,1.59-12.82,2.81-19.19,1-5.46,2-10.24,6.55-13.71a4.15,4.15,0,0,1,5,.65c3.81,4.31,3.55,9.62,3.63,15.12.1,6.52.07,13.06-.11,19.58-.31,12.29-.69,24.56-.79,36.85s.09,24.6.59,36.88q.39,9.82,1,19.63C1279.16,145.54,1280.44,152.32,1279.85,158.72Z"/><path class="cls-1" d="M769.32,26.1c-8.89,4.9-20.31,6.17-30.26,7.51-.21,8.91-1.54,18-2.13,26.66-.81,12.22-1.56,24.44-1.84,36.69q-.44,19,.33,38c.51,12.21,2.34,24.53,2.34,36.73,0,12.85-20.93,16.35-23,3.1-2-13-1.74-26.64-1.78-39.83s.24-26.16.9-39.22,1.52-26.15,3.23-39.11c.89-6.79,1.64-13.83,3-20.72q-6.93.76-13.87,1.37c-14.55,1.29-14.94-23.08,0-22.93q15.6.15,31.2-.51c9.79-.43,20.76-1.69,30.37.6C773.12,15.71,774.06,23.5,769.32,26.1Z"/></svg>