<?xml version="1.0" encoding="UTF-8"?>
<svg id="Layer_1" data-name="Layer 1" xmlns="http://www.w3.org/2000/svg" viewBox="0 0 1146.73 1280">
  <defs>
    <style>
      .cls-1 {
        fill: #2eb454;
      }

      .cls-1, .cls-2, .cls-3, .cls-4, .cls-5, .cls-6 {
        stroke-width: 0px;
      }

      .cls-2 {
        fill: #5b4019;
      }

      .cls-3 {
        fill: #875221;
      }

      .cls-4 {
        fill: #21894b;
      }

      .cls-5 {
        fill: #2f1d0f;
      }

      .cls-6 {
        fill: #fff;
      }
    </style>
  </defs>
  <g>
    <path class="cls-1" d="M1090.55,837.44c-13.03,72.62-36.86,130.28-50.17,159.1-17.19,37.14-35.2,67.08-49.89,89.25-2.22,17.74-6.93,41.02-17.19,66.52-11.36,28.27-25.5,50.17-37.42,65.14-1.39,1.66-2.77,3.33-3.88,4.71-15.52,2.77-40.47,5.27-70.4-.55-31.6-6.1-54.61-18.85-68.19-27.44-43.24,1.11-102.84-1.66-171.58-19.13-39.91-9.98-98.96-29.38-162.71-67.08-138.04-81.77-207.61-196.53-232.56-242.54-21.34-39.91-47.4-98.13-62.92-173.8,25.78-22.45,51.28-43.24,76.23-62.09,24.67-18.85,48.79-36.31,71.79-52.11,29.38-20.51,57.1-38.53,82.88-54.05,6.65-4.16,13.3-8.04,19.68-11.92,61.53-36.31,118.36-64.86,167.7-87.31,66.8-30.21,161.6-68.19,279.13-98.68,38.53-9.98,70.96-17.19,93.97-21.62,37.42,49.06,90.92,132.77,121.13,247.8,37.7,143.86,18.85,259.72,14.41,285.78Z"/>
    <path class="cls-3" d="M955.01,303.86c-61.54,11.64-141.64,30.21-233.11,61.26-154.39,52.94-267.21,116.42-320.15,148.57-7.48,4.43-13.86,8.32-18.85,11.36-60.98,38.25-137.76,92.58-219.26,166.59-13.03-3.6-32.99-10.81-54.05-25.22-9.15-6.38-61.54-42.69-69.3-101.17-4.16-29.94,4.99-54.6,13.86-74.56,62.92-143.58,194.03-240.32,214.26-255.01,26.89-19.4,52.11-35.2,73.18-47.4,28-16.35,48.79-26.33,56.27-29.94,138.32-65.14,258.62-71.24,303.24-72.07,23.01-.28,236.44-2.22,265.82,77.33,3.6,9.42,5.54,22.73,6.1,26.89,7.21,49.89-7.76,91.2-18.02,113.37Z"/>
    <path class="cls-2" d="M382.89,525.05c-73.09,55.53-146.17,111.06-219.26,166.59-13.03-3.6-32.99-10.81-54.05-25.22-9.15-6.38-61.54-42.69-69.3-101.17-4.16-29.94,4.99-54.6,13.86-74.56,66.01-148.51,214.26-255.01,214.26-255.01,39.91-28.78,100.33-67.08,181.38-99.97-7.57,32.42-18.78,100.39,4.3,180.76,18.65,64.93,51.61,109.85,72.39,134.09-47.86,24.84-95.73,49.67-143.59,74.51Z"/>
    <path class="cls-4" d="M672.81,1185.78s-25.68-4.4-50.98-10.72c-39.91-9.98-98.96-29.38-162.71-67.08-138.04-81.77-207.61-196.53-232.56-242.54-21.34-39.91-47.4-98.13-62.92-173.8,50.07-42.93,108.97-88.63,177.14-133.72,65.68-43.45,128.47-78.73,185.71-107.38,15.88,106.69,44.93,239.12,99.7,385.02,56.9,151.61,125.24,274.27,185.65,366.96-46.34-5.58-92.69-11.17-139.03-16.75Z"/>
    <path class="cls-2" d="M487.88,119.7c-6.58-12.6-17.16-29.1-33.87-44.83-33.23-31.28-70.68-40.68-88.23-43.86-11.26,6.46-26.85,17.09-41.93,33.79-16.75,18.54-26.14,37.09-31.34,49.71,5.95,15.65,11.75,35.15,15.07,57.98,1.82,12.48,2.62,24.09,2.8,34.57,25.68-16.13,54.84-32.73,87.44-48.74,31.86-15.64,62.16-28.31,90.06-38.62Z"/>
    <g>
      <path class="cls-6" d="M807.67,815.63c-38.53,7.03-74.77,17.67-108.12,37.82-20.23,12.06-37.63,26.15-55.8,42.14-8.89,8.5-23.19,7.96-31.28-1.35-5.6-6.4-6.72-15.2-3.66-22.55,7.74-18.49,19.74-34.99,33.99-49.33,21.56-21.59,48.75-37.53,77.94-46.38,28.94-8.5,60.48-10.55,89.59-2.6,22.55,6.61,20.25,38.62-2.67,42.25h0Z"/>
      <path class="cls-6" d="M823.13,693.53c-66.06,4.54-130.48,18.78-188.43,50.75-35.01,19.21-66.06,43.34-95.16,71.42-18.25,16.86-45.38-4.87-33.1-26.32,31.82-52.92,82.22-94.49,138.73-119.26,56.71-24.82,121.57-33.49,181.99-18.73,23.56,6.53,20.12,40.31-4.03,42.14h0Z"/>
      <path class="cls-6" d="M845.58,571.28c-89.21-2.61-178.34,13.63-257.02,55.88-61.38,32.38-114.19,79.44-156.63,134.31-16.31,19.88-46.85.38-35.65-22.79,41.63-79.55,111.41-143.21,192.52-181.25,81.26-37.79,175.66-50.15,262.92-28.04,24.33,7.1,19.1,42.12-6.14,41.89h0Z"/>
    </g>
  </g>
  <path class="cls-5" d="M1145.39,691.75c-9.59-141.85-63.63-283.19-160.89-387.68,3.41-5.74,6.9-11.52,10.47-17.43,22.09-35.02,40.7-74.34,27.38-117.81-39.42-120.38-218.77-139.29-326.36-132.86-74.62,4.21-145.11,16.64-211.84,37.41-1.48-1.72-2.94-3.47-4.46-5.16-16.83-18.64-36.08-35.02-56.69-49.23-5.76-3.82-11.53-7.81-17.65-11.03-8.85-4.58-18.73-7.21-28.65-7.84-21.39-1.34-42.98,7.38-57.51,23-4.63,4.94-10.15,13-14.26,18.48-8.47,11.96-20.42,28.06-28.28,40.2-11.06,18.06-13.28,41.56-4.93,61.2,3.62,9.05,6.42,18.27,8.49,27.66-42.21,28.1-82.66,60.59-121.42,97.61C88.2,335.71,11.58,429.74,1.05,530.13c-5.81,56.06,12.46,107.82,54.75,145.42,26.22,23.42,58.11,39.46,91.1,49.36,4.85,30.62,12.32,60.88,21.99,90.38,28.22,85.94,76.71,165.08,139.61,230.06,123.92,130.04,302.76,204.54,482.18,202.87,31.31,14.19,68.69,27.81,97.51,30.47,35.7,6.06,75.35-9.49,97.98-38.65,4.81-5.89,8.92-12.53,12.35-19.29,17.44-33.51,28.86-71.07,32.76-108.78,78.3-118.76,124.04-273.67,114.11-420.23ZM319.6,134.27c-.69-2.86-1.44-5.79-2.24-8.63-1.17-5.15.7-10.58,4.2-14.55,11.44-12.61,25.75-29.07,36.8-42.12,0,0,1.88-2.23,1.88-2.23,5.11-6.67,14.34-7.74,20.75-3.08,15.68,9.27,30.85,19.35,45.5,30.13-36,14.34-70.85,31.29-104.59,50.92-.7-3.5-1.45-6.98-2.29-10.43ZM80.69,538.63c11.2-76.77,81.64-154.35,138.18-204.99,88.1-78.48,192.72-139.71,306.88-170.53,107.55-28.33,234.99-39.03,342.3-8.07,16.51,5.2,31.71,11.92,43.29,19.69,7.49,4.99,14.17,10.85,19.01,18.05,7.88,13.23,13.21,27.37,14.12,44.55.98,14.48-1.73,29.75-7.3,43.71-69.82,13.63-138.81,30.76-206.87,51.31-145.66,43.23-284.99,107.28-411.27,192.1-57.14,38.02-111.72,79.97-163.47,125.24-10.28-4.27-20.12-9.38-29.01-15.19-35.75-23.39-51.63-54.2-45.86-95.9ZM1052.5,761.58c-6.12,97.76-37.28,193.5-89.07,276.69-7.06,11.92-15.53,22.53-21.34,35.37-4.26,9.27-6.93,20.11-7.99,30.48-3.31,23.77-10.33,46.17-21.61,67.52l-1.66,3.24-.41.81-.21.4c-.66,1.28-1.95,2.47-3.08,3.18-1.28.71-2.07.7-2.68.57-3.42-.65-7.36-.7-11.01-1.54-13.06-2.98-28.12-8.62-41.08-13.75-9.67-3.88-19.21-8.15-28.6-12.76-6.8-3.31-14.67-5.24-22.75-5.13-102.12,1.65-204.49-21.46-295.19-68.58-60.83-31.42-116.8-72.55-164.75-121.46-42.47-43.27-78.46-92.8-106.56-146.57-12.46-23.29-23.04-47.43-32.61-72.13-3-7.89-5.86-15.86-8.62-23.88,201.22-190.4,476.49-341.3,752.19-383.01,67.84,136.49,117.56,275.59,107.04,430.53Z"/>
</svg>